%TF.GenerationSoftware,KiCad,Pcbnew,8.0.7-unknown-202412111143~94124538da~ubuntu24.04.1*%
%TF.CreationDate,2024-12-18T03:39:21-06:00*%
%TF.ProjectId,delivery-box-reporter,64656c69-7665-4727-992d-626f782d7265,rev?*%
%TF.SameCoordinates,Original*%
%TF.FileFunction,Legend,Bot*%
%TF.FilePolarity,Positive*%
%FSLAX46Y46*%
G04 Gerber Fmt 4.6, Leading zero omitted, Abs format (unit mm)*
G04 Created by KiCad (PCBNEW 8.0.7-unknown-202412111143~94124538da~ubuntu24.04.1) date 2024-12-18 03:39:21*
%MOMM*%
%LPD*%
G01*
G04 APERTURE LIST*
%ADD10C,0.300000*%
%ADD11C,0.100000*%
%ADD12C,0.150000*%
%ADD13C,0.120000*%
G04 APERTURE END LIST*
D10*
X123754510Y-112579400D02*
X124897368Y-112579400D01*
X124325939Y-113150828D02*
X124325939Y-112007971D01*
D11*
X158096115Y-75192587D02*
X158096115Y-74192587D01*
X158096115Y-74192587D02*
X157858020Y-74192587D01*
X157858020Y-74192587D02*
X157715163Y-74240206D01*
X157715163Y-74240206D02*
X157619925Y-74335444D01*
X157619925Y-74335444D02*
X157572306Y-74430682D01*
X157572306Y-74430682D02*
X157524687Y-74621158D01*
X157524687Y-74621158D02*
X157524687Y-74764015D01*
X157524687Y-74764015D02*
X157572306Y-74954491D01*
X157572306Y-74954491D02*
X157619925Y-75049729D01*
X157619925Y-75049729D02*
X157715163Y-75144968D01*
X157715163Y-75144968D02*
X157858020Y-75192587D01*
X157858020Y-75192587D02*
X158096115Y-75192587D01*
X156715163Y-75144968D02*
X156810401Y-75192587D01*
X156810401Y-75192587D02*
X157000877Y-75192587D01*
X157000877Y-75192587D02*
X157096115Y-75144968D01*
X157096115Y-75144968D02*
X157143734Y-75049729D01*
X157143734Y-75049729D02*
X157143734Y-74668777D01*
X157143734Y-74668777D02*
X157096115Y-74573539D01*
X157096115Y-74573539D02*
X157000877Y-74525920D01*
X157000877Y-74525920D02*
X156810401Y-74525920D01*
X156810401Y-74525920D02*
X156715163Y-74573539D01*
X156715163Y-74573539D02*
X156667544Y-74668777D01*
X156667544Y-74668777D02*
X156667544Y-74764015D01*
X156667544Y-74764015D02*
X157143734Y-74859253D01*
X156096115Y-75192587D02*
X156191353Y-75144968D01*
X156191353Y-75144968D02*
X156238972Y-75049729D01*
X156238972Y-75049729D02*
X156238972Y-74192587D01*
X155715162Y-75192587D02*
X155715162Y-74525920D01*
X155715162Y-74192587D02*
X155762781Y-74240206D01*
X155762781Y-74240206D02*
X155715162Y-74287825D01*
X155715162Y-74287825D02*
X155667543Y-74240206D01*
X155667543Y-74240206D02*
X155715162Y-74192587D01*
X155715162Y-74192587D02*
X155715162Y-74287825D01*
X155334210Y-74525920D02*
X155096115Y-75192587D01*
X155096115Y-75192587D02*
X154858020Y-74525920D01*
X154096115Y-75144968D02*
X154191353Y-75192587D01*
X154191353Y-75192587D02*
X154381829Y-75192587D01*
X154381829Y-75192587D02*
X154477067Y-75144968D01*
X154477067Y-75144968D02*
X154524686Y-75049729D01*
X154524686Y-75049729D02*
X154524686Y-74668777D01*
X154524686Y-74668777D02*
X154477067Y-74573539D01*
X154477067Y-74573539D02*
X154381829Y-74525920D01*
X154381829Y-74525920D02*
X154191353Y-74525920D01*
X154191353Y-74525920D02*
X154096115Y-74573539D01*
X154096115Y-74573539D02*
X154048496Y-74668777D01*
X154048496Y-74668777D02*
X154048496Y-74764015D01*
X154048496Y-74764015D02*
X154524686Y-74859253D01*
X153619924Y-75192587D02*
X153619924Y-74525920D01*
X153619924Y-74716396D02*
X153572305Y-74621158D01*
X153572305Y-74621158D02*
X153524686Y-74573539D01*
X153524686Y-74573539D02*
X153429448Y-74525920D01*
X153429448Y-74525920D02*
X153334210Y-74525920D01*
X153096114Y-74525920D02*
X152858019Y-75192587D01*
X152619924Y-74525920D02*
X152858019Y-75192587D01*
X152858019Y-75192587D02*
X152953257Y-75430682D01*
X152953257Y-75430682D02*
X153000876Y-75478301D01*
X153000876Y-75478301D02*
X153096114Y-75525920D01*
X151143733Y-74668777D02*
X151000876Y-74716396D01*
X151000876Y-74716396D02*
X150953257Y-74764015D01*
X150953257Y-74764015D02*
X150905638Y-74859253D01*
X150905638Y-74859253D02*
X150905638Y-75002110D01*
X150905638Y-75002110D02*
X150953257Y-75097348D01*
X150953257Y-75097348D02*
X151000876Y-75144968D01*
X151000876Y-75144968D02*
X151096114Y-75192587D01*
X151096114Y-75192587D02*
X151477066Y-75192587D01*
X151477066Y-75192587D02*
X151477066Y-74192587D01*
X151477066Y-74192587D02*
X151143733Y-74192587D01*
X151143733Y-74192587D02*
X151048495Y-74240206D01*
X151048495Y-74240206D02*
X151000876Y-74287825D01*
X151000876Y-74287825D02*
X150953257Y-74383063D01*
X150953257Y-74383063D02*
X150953257Y-74478301D01*
X150953257Y-74478301D02*
X151000876Y-74573539D01*
X151000876Y-74573539D02*
X151048495Y-74621158D01*
X151048495Y-74621158D02*
X151143733Y-74668777D01*
X151143733Y-74668777D02*
X151477066Y-74668777D01*
X150334209Y-75192587D02*
X150429447Y-75144968D01*
X150429447Y-75144968D02*
X150477066Y-75097348D01*
X150477066Y-75097348D02*
X150524685Y-75002110D01*
X150524685Y-75002110D02*
X150524685Y-74716396D01*
X150524685Y-74716396D02*
X150477066Y-74621158D01*
X150477066Y-74621158D02*
X150429447Y-74573539D01*
X150429447Y-74573539D02*
X150334209Y-74525920D01*
X150334209Y-74525920D02*
X150191352Y-74525920D01*
X150191352Y-74525920D02*
X150096114Y-74573539D01*
X150096114Y-74573539D02*
X150048495Y-74621158D01*
X150048495Y-74621158D02*
X150000876Y-74716396D01*
X150000876Y-74716396D02*
X150000876Y-75002110D01*
X150000876Y-75002110D02*
X150048495Y-75097348D01*
X150048495Y-75097348D02*
X150096114Y-75144968D01*
X150096114Y-75144968D02*
X150191352Y-75192587D01*
X150191352Y-75192587D02*
X150334209Y-75192587D01*
X149667542Y-75192587D02*
X149143733Y-74525920D01*
X149667542Y-74525920D02*
X149143733Y-75192587D01*
X147429447Y-75192587D02*
X147762780Y-74716396D01*
X148000875Y-75192587D02*
X148000875Y-74192587D01*
X148000875Y-74192587D02*
X147619923Y-74192587D01*
X147619923Y-74192587D02*
X147524685Y-74240206D01*
X147524685Y-74240206D02*
X147477066Y-74287825D01*
X147477066Y-74287825D02*
X147429447Y-74383063D01*
X147429447Y-74383063D02*
X147429447Y-74525920D01*
X147429447Y-74525920D02*
X147477066Y-74621158D01*
X147477066Y-74621158D02*
X147524685Y-74668777D01*
X147524685Y-74668777D02*
X147619923Y-74716396D01*
X147619923Y-74716396D02*
X148000875Y-74716396D01*
X146619923Y-75144968D02*
X146715161Y-75192587D01*
X146715161Y-75192587D02*
X146905637Y-75192587D01*
X146905637Y-75192587D02*
X147000875Y-75144968D01*
X147000875Y-75144968D02*
X147048494Y-75049729D01*
X147048494Y-75049729D02*
X147048494Y-74668777D01*
X147048494Y-74668777D02*
X147000875Y-74573539D01*
X147000875Y-74573539D02*
X146905637Y-74525920D01*
X146905637Y-74525920D02*
X146715161Y-74525920D01*
X146715161Y-74525920D02*
X146619923Y-74573539D01*
X146619923Y-74573539D02*
X146572304Y-74668777D01*
X146572304Y-74668777D02*
X146572304Y-74764015D01*
X146572304Y-74764015D02*
X147048494Y-74859253D01*
X146143732Y-74525920D02*
X146143732Y-75525920D01*
X146143732Y-74573539D02*
X146048494Y-74525920D01*
X146048494Y-74525920D02*
X145858018Y-74525920D01*
X145858018Y-74525920D02*
X145762780Y-74573539D01*
X145762780Y-74573539D02*
X145715161Y-74621158D01*
X145715161Y-74621158D02*
X145667542Y-74716396D01*
X145667542Y-74716396D02*
X145667542Y-75002110D01*
X145667542Y-75002110D02*
X145715161Y-75097348D01*
X145715161Y-75097348D02*
X145762780Y-75144968D01*
X145762780Y-75144968D02*
X145858018Y-75192587D01*
X145858018Y-75192587D02*
X146048494Y-75192587D01*
X146048494Y-75192587D02*
X146143732Y-75144968D01*
X145096113Y-75192587D02*
X145191351Y-75144968D01*
X145191351Y-75144968D02*
X145238970Y-75097348D01*
X145238970Y-75097348D02*
X145286589Y-75002110D01*
X145286589Y-75002110D02*
X145286589Y-74716396D01*
X145286589Y-74716396D02*
X145238970Y-74621158D01*
X145238970Y-74621158D02*
X145191351Y-74573539D01*
X145191351Y-74573539D02*
X145096113Y-74525920D01*
X145096113Y-74525920D02*
X144953256Y-74525920D01*
X144953256Y-74525920D02*
X144858018Y-74573539D01*
X144858018Y-74573539D02*
X144810399Y-74621158D01*
X144810399Y-74621158D02*
X144762780Y-74716396D01*
X144762780Y-74716396D02*
X144762780Y-75002110D01*
X144762780Y-75002110D02*
X144810399Y-75097348D01*
X144810399Y-75097348D02*
X144858018Y-75144968D01*
X144858018Y-75144968D02*
X144953256Y-75192587D01*
X144953256Y-75192587D02*
X145096113Y-75192587D01*
X144334208Y-75192587D02*
X144334208Y-74525920D01*
X144334208Y-74716396D02*
X144286589Y-74621158D01*
X144286589Y-74621158D02*
X144238970Y-74573539D01*
X144238970Y-74573539D02*
X144143732Y-74525920D01*
X144143732Y-74525920D02*
X144048494Y-74525920D01*
X143858017Y-74525920D02*
X143477065Y-74525920D01*
X143715160Y-74192587D02*
X143715160Y-75049729D01*
X143715160Y-75049729D02*
X143667541Y-75144968D01*
X143667541Y-75144968D02*
X143572303Y-75192587D01*
X143572303Y-75192587D02*
X143477065Y-75192587D01*
X142762779Y-75144968D02*
X142858017Y-75192587D01*
X142858017Y-75192587D02*
X143048493Y-75192587D01*
X143048493Y-75192587D02*
X143143731Y-75144968D01*
X143143731Y-75144968D02*
X143191350Y-75049729D01*
X143191350Y-75049729D02*
X143191350Y-74668777D01*
X143191350Y-74668777D02*
X143143731Y-74573539D01*
X143143731Y-74573539D02*
X143048493Y-74525920D01*
X143048493Y-74525920D02*
X142858017Y-74525920D01*
X142858017Y-74525920D02*
X142762779Y-74573539D01*
X142762779Y-74573539D02*
X142715160Y-74668777D01*
X142715160Y-74668777D02*
X142715160Y-74764015D01*
X142715160Y-74764015D02*
X143191350Y-74859253D01*
X142286588Y-75192587D02*
X142286588Y-74525920D01*
X142286588Y-74716396D02*
X142238969Y-74621158D01*
X142238969Y-74621158D02*
X142191350Y-74573539D01*
X142191350Y-74573539D02*
X142096112Y-74525920D01*
X142096112Y-74525920D02*
X142000874Y-74525920D01*
X158238972Y-75802531D02*
X157905639Y-76802531D01*
X157905639Y-76802531D02*
X157572306Y-75802531D01*
X156858020Y-76754912D02*
X156953258Y-76802531D01*
X156953258Y-76802531D02*
X157143734Y-76802531D01*
X157143734Y-76802531D02*
X157238972Y-76754912D01*
X157238972Y-76754912D02*
X157286591Y-76659673D01*
X157286591Y-76659673D02*
X157286591Y-76278721D01*
X157286591Y-76278721D02*
X157238972Y-76183483D01*
X157238972Y-76183483D02*
X157143734Y-76135864D01*
X157143734Y-76135864D02*
X156953258Y-76135864D01*
X156953258Y-76135864D02*
X156858020Y-76183483D01*
X156858020Y-76183483D02*
X156810401Y-76278721D01*
X156810401Y-76278721D02*
X156810401Y-76373959D01*
X156810401Y-76373959D02*
X157286591Y-76469197D01*
X156381829Y-76802531D02*
X156381829Y-76135864D01*
X156381829Y-76326340D02*
X156334210Y-76231102D01*
X156334210Y-76231102D02*
X156286591Y-76183483D01*
X156286591Y-76183483D02*
X156191353Y-76135864D01*
X156191353Y-76135864D02*
X156096115Y-76135864D01*
X155810400Y-76754912D02*
X155715162Y-76802531D01*
X155715162Y-76802531D02*
X155524686Y-76802531D01*
X155524686Y-76802531D02*
X155429448Y-76754912D01*
X155429448Y-76754912D02*
X155381829Y-76659673D01*
X155381829Y-76659673D02*
X155381829Y-76612054D01*
X155381829Y-76612054D02*
X155429448Y-76516816D01*
X155429448Y-76516816D02*
X155524686Y-76469197D01*
X155524686Y-76469197D02*
X155667543Y-76469197D01*
X155667543Y-76469197D02*
X155762781Y-76421578D01*
X155762781Y-76421578D02*
X155810400Y-76326340D01*
X155810400Y-76326340D02*
X155810400Y-76278721D01*
X155810400Y-76278721D02*
X155762781Y-76183483D01*
X155762781Y-76183483D02*
X155667543Y-76135864D01*
X155667543Y-76135864D02*
X155524686Y-76135864D01*
X155524686Y-76135864D02*
X155429448Y-76183483D01*
X154953257Y-76802531D02*
X154953257Y-76135864D01*
X154953257Y-75802531D02*
X155000876Y-75850150D01*
X155000876Y-75850150D02*
X154953257Y-75897769D01*
X154953257Y-75897769D02*
X154905638Y-75850150D01*
X154905638Y-75850150D02*
X154953257Y-75802531D01*
X154953257Y-75802531D02*
X154953257Y-75897769D01*
X154334210Y-76802531D02*
X154429448Y-76754912D01*
X154429448Y-76754912D02*
X154477067Y-76707292D01*
X154477067Y-76707292D02*
X154524686Y-76612054D01*
X154524686Y-76612054D02*
X154524686Y-76326340D01*
X154524686Y-76326340D02*
X154477067Y-76231102D01*
X154477067Y-76231102D02*
X154429448Y-76183483D01*
X154429448Y-76183483D02*
X154334210Y-76135864D01*
X154334210Y-76135864D02*
X154191353Y-76135864D01*
X154191353Y-76135864D02*
X154096115Y-76183483D01*
X154096115Y-76183483D02*
X154048496Y-76231102D01*
X154048496Y-76231102D02*
X154000877Y-76326340D01*
X154000877Y-76326340D02*
X154000877Y-76612054D01*
X154000877Y-76612054D02*
X154048496Y-76707292D01*
X154048496Y-76707292D02*
X154096115Y-76754912D01*
X154096115Y-76754912D02*
X154191353Y-76802531D01*
X154191353Y-76802531D02*
X154334210Y-76802531D01*
X153572305Y-76135864D02*
X153572305Y-76802531D01*
X153572305Y-76231102D02*
X153524686Y-76183483D01*
X153524686Y-76183483D02*
X153429448Y-76135864D01*
X153429448Y-76135864D02*
X153286591Y-76135864D01*
X153286591Y-76135864D02*
X153191353Y-76183483D01*
X153191353Y-76183483D02*
X153143734Y-76278721D01*
X153143734Y-76278721D02*
X153143734Y-76802531D01*
X151381829Y-76802531D02*
X151953257Y-76802531D01*
X151667543Y-76802531D02*
X151667543Y-75802531D01*
X151667543Y-75802531D02*
X151762781Y-75945388D01*
X151762781Y-75945388D02*
X151858019Y-76040626D01*
X151858019Y-76040626D02*
X151953257Y-76088245D01*
X150953257Y-76707292D02*
X150905638Y-76754912D01*
X150905638Y-76754912D02*
X150953257Y-76802531D01*
X150953257Y-76802531D02*
X151000876Y-76754912D01*
X151000876Y-76754912D02*
X150953257Y-76707292D01*
X150953257Y-76707292D02*
X150953257Y-76802531D01*
X150048496Y-76135864D02*
X150048496Y-76802531D01*
X150286591Y-75754912D02*
X150524686Y-76469197D01*
X150524686Y-76469197D02*
X149905639Y-76469197D01*
X149524686Y-76707292D02*
X149477067Y-76754912D01*
X149477067Y-76754912D02*
X149524686Y-76802531D01*
X149524686Y-76802531D02*
X149572305Y-76754912D01*
X149572305Y-76754912D02*
X149524686Y-76707292D01*
X149524686Y-76707292D02*
X149524686Y-76802531D01*
X148858020Y-75802531D02*
X148762782Y-75802531D01*
X148762782Y-75802531D02*
X148667544Y-75850150D01*
X148667544Y-75850150D02*
X148619925Y-75897769D01*
X148619925Y-75897769D02*
X148572306Y-75993007D01*
X148572306Y-75993007D02*
X148524687Y-76183483D01*
X148524687Y-76183483D02*
X148524687Y-76421578D01*
X148524687Y-76421578D02*
X148572306Y-76612054D01*
X148572306Y-76612054D02*
X148619925Y-76707292D01*
X148619925Y-76707292D02*
X148667544Y-76754912D01*
X148667544Y-76754912D02*
X148762782Y-76802531D01*
X148762782Y-76802531D02*
X148858020Y-76802531D01*
X148858020Y-76802531D02*
X148953258Y-76754912D01*
X148953258Y-76754912D02*
X149000877Y-76707292D01*
X149000877Y-76707292D02*
X149048496Y-76612054D01*
X149048496Y-76612054D02*
X149096115Y-76421578D01*
X149096115Y-76421578D02*
X149096115Y-76183483D01*
X149096115Y-76183483D02*
X149048496Y-75993007D01*
X149048496Y-75993007D02*
X149000877Y-75897769D01*
X149000877Y-75897769D02*
X148953258Y-75850150D01*
X148953258Y-75850150D02*
X148858020Y-75802531D01*
X157572306Y-78412475D02*
X158143734Y-78412475D01*
X157858020Y-78412475D02*
X157858020Y-77412475D01*
X157858020Y-77412475D02*
X157953258Y-77555332D01*
X157953258Y-77555332D02*
X158048496Y-77650570D01*
X158048496Y-77650570D02*
X158143734Y-77698189D01*
X157191353Y-77507713D02*
X157143734Y-77460094D01*
X157143734Y-77460094D02*
X157048496Y-77412475D01*
X157048496Y-77412475D02*
X156810401Y-77412475D01*
X156810401Y-77412475D02*
X156715163Y-77460094D01*
X156715163Y-77460094D02*
X156667544Y-77507713D01*
X156667544Y-77507713D02*
X156619925Y-77602951D01*
X156619925Y-77602951D02*
X156619925Y-77698189D01*
X156619925Y-77698189D02*
X156667544Y-77841046D01*
X156667544Y-77841046D02*
X157238972Y-78412475D01*
X157238972Y-78412475D02*
X156619925Y-78412475D01*
X156191353Y-78031522D02*
X155429449Y-78031522D01*
X154429449Y-78412475D02*
X155000877Y-78412475D01*
X154715163Y-78412475D02*
X154715163Y-77412475D01*
X154715163Y-77412475D02*
X154810401Y-77555332D01*
X154810401Y-77555332D02*
X154905639Y-77650570D01*
X154905639Y-77650570D02*
X155000877Y-77698189D01*
X154096115Y-77412475D02*
X153429449Y-77412475D01*
X153429449Y-77412475D02*
X153858020Y-78412475D01*
X153048496Y-78031522D02*
X152286592Y-78031522D01*
X151858020Y-77507713D02*
X151810401Y-77460094D01*
X151810401Y-77460094D02*
X151715163Y-77412475D01*
X151715163Y-77412475D02*
X151477068Y-77412475D01*
X151477068Y-77412475D02*
X151381830Y-77460094D01*
X151381830Y-77460094D02*
X151334211Y-77507713D01*
X151334211Y-77507713D02*
X151286592Y-77602951D01*
X151286592Y-77602951D02*
X151286592Y-77698189D01*
X151286592Y-77698189D02*
X151334211Y-77841046D01*
X151334211Y-77841046D02*
X151905639Y-78412475D01*
X151905639Y-78412475D02*
X151286592Y-78412475D01*
X150429449Y-77745808D02*
X150429449Y-78412475D01*
X150667544Y-77364856D02*
X150905639Y-78079141D01*
X150905639Y-78079141D02*
X150286592Y-78079141D01*
X158096115Y-80022419D02*
X158096115Y-79022419D01*
X158096115Y-79022419D02*
X157858020Y-79022419D01*
X157858020Y-79022419D02*
X157715163Y-79070038D01*
X157715163Y-79070038D02*
X157619925Y-79165276D01*
X157619925Y-79165276D02*
X157572306Y-79260514D01*
X157572306Y-79260514D02*
X157524687Y-79450990D01*
X157524687Y-79450990D02*
X157524687Y-79593847D01*
X157524687Y-79593847D02*
X157572306Y-79784323D01*
X157572306Y-79784323D02*
X157619925Y-79879561D01*
X157619925Y-79879561D02*
X157715163Y-79974800D01*
X157715163Y-79974800D02*
X157858020Y-80022419D01*
X157858020Y-80022419D02*
X158096115Y-80022419D01*
X156667544Y-80022419D02*
X156667544Y-79498609D01*
X156667544Y-79498609D02*
X156715163Y-79403371D01*
X156715163Y-79403371D02*
X156810401Y-79355752D01*
X156810401Y-79355752D02*
X157000877Y-79355752D01*
X157000877Y-79355752D02*
X157096115Y-79403371D01*
X156667544Y-79974800D02*
X156762782Y-80022419D01*
X156762782Y-80022419D02*
X157000877Y-80022419D01*
X157000877Y-80022419D02*
X157096115Y-79974800D01*
X157096115Y-79974800D02*
X157143734Y-79879561D01*
X157143734Y-79879561D02*
X157143734Y-79784323D01*
X157143734Y-79784323D02*
X157096115Y-79689085D01*
X157096115Y-79689085D02*
X157000877Y-79641466D01*
X157000877Y-79641466D02*
X156762782Y-79641466D01*
X156762782Y-79641466D02*
X156667544Y-79593847D01*
X156286591Y-79355752D02*
X156048496Y-80022419D01*
X156048496Y-80022419D02*
X155810401Y-79355752D01*
X155429448Y-80022419D02*
X155429448Y-79355752D01*
X155429448Y-79022419D02*
X155477067Y-79070038D01*
X155477067Y-79070038D02*
X155429448Y-79117657D01*
X155429448Y-79117657D02*
X155381829Y-79070038D01*
X155381829Y-79070038D02*
X155429448Y-79022419D01*
X155429448Y-79022419D02*
X155429448Y-79117657D01*
X154524687Y-80022419D02*
X154524687Y-79022419D01*
X154524687Y-79974800D02*
X154619925Y-80022419D01*
X154619925Y-80022419D02*
X154810401Y-80022419D01*
X154810401Y-80022419D02*
X154905639Y-79974800D01*
X154905639Y-79974800D02*
X154953258Y-79927180D01*
X154953258Y-79927180D02*
X155000877Y-79831942D01*
X155000877Y-79831942D02*
X155000877Y-79546228D01*
X155000877Y-79546228D02*
X154953258Y-79450990D01*
X154953258Y-79450990D02*
X154905639Y-79403371D01*
X154905639Y-79403371D02*
X154810401Y-79355752D01*
X154810401Y-79355752D02*
X154619925Y-79355752D01*
X154619925Y-79355752D02*
X154524687Y-79403371D01*
X153286591Y-79498609D02*
X152953258Y-79498609D01*
X152810401Y-80022419D02*
X153286591Y-80022419D01*
X153286591Y-80022419D02*
X153286591Y-79022419D01*
X153286591Y-79022419D02*
X152810401Y-79022419D01*
X152381829Y-79927180D02*
X152334210Y-79974800D01*
X152334210Y-79974800D02*
X152381829Y-80022419D01*
X152381829Y-80022419D02*
X152429448Y-79974800D01*
X152429448Y-79974800D02*
X152381829Y-79927180D01*
X152381829Y-79927180D02*
X152381829Y-80022419D01*
X151143734Y-80022419D02*
X151143734Y-79022419D01*
X151143734Y-79022419D02*
X150762782Y-79022419D01*
X150762782Y-79022419D02*
X150667544Y-79070038D01*
X150667544Y-79070038D02*
X150619925Y-79117657D01*
X150619925Y-79117657D02*
X150572306Y-79212895D01*
X150572306Y-79212895D02*
X150572306Y-79355752D01*
X150572306Y-79355752D02*
X150619925Y-79450990D01*
X150619925Y-79450990D02*
X150667544Y-79498609D01*
X150667544Y-79498609D02*
X150762782Y-79546228D01*
X150762782Y-79546228D02*
X151143734Y-79546228D01*
X150000877Y-80022419D02*
X150096115Y-79974800D01*
X150096115Y-79974800D02*
X150143734Y-79927180D01*
X150143734Y-79927180D02*
X150191353Y-79831942D01*
X150191353Y-79831942D02*
X150191353Y-79546228D01*
X150191353Y-79546228D02*
X150143734Y-79450990D01*
X150143734Y-79450990D02*
X150096115Y-79403371D01*
X150096115Y-79403371D02*
X150000877Y-79355752D01*
X150000877Y-79355752D02*
X149858020Y-79355752D01*
X149858020Y-79355752D02*
X149762782Y-79403371D01*
X149762782Y-79403371D02*
X149715163Y-79450990D01*
X149715163Y-79450990D02*
X149667544Y-79546228D01*
X149667544Y-79546228D02*
X149667544Y-79831942D01*
X149667544Y-79831942D02*
X149715163Y-79927180D01*
X149715163Y-79927180D02*
X149762782Y-79974800D01*
X149762782Y-79974800D02*
X149858020Y-80022419D01*
X149858020Y-80022419D02*
X150000877Y-80022419D01*
X149334210Y-79355752D02*
X149143734Y-80022419D01*
X149143734Y-80022419D02*
X148953258Y-79546228D01*
X148953258Y-79546228D02*
X148762782Y-80022419D01*
X148762782Y-80022419D02*
X148572306Y-79355752D01*
X147810401Y-79974800D02*
X147905639Y-80022419D01*
X147905639Y-80022419D02*
X148096115Y-80022419D01*
X148096115Y-80022419D02*
X148191353Y-79974800D01*
X148191353Y-79974800D02*
X148238972Y-79879561D01*
X148238972Y-79879561D02*
X148238972Y-79498609D01*
X148238972Y-79498609D02*
X148191353Y-79403371D01*
X148191353Y-79403371D02*
X148096115Y-79355752D01*
X148096115Y-79355752D02*
X147905639Y-79355752D01*
X147905639Y-79355752D02*
X147810401Y-79403371D01*
X147810401Y-79403371D02*
X147762782Y-79498609D01*
X147762782Y-79498609D02*
X147762782Y-79593847D01*
X147762782Y-79593847D02*
X148238972Y-79689085D01*
X147191353Y-80022419D02*
X147286591Y-79974800D01*
X147286591Y-79974800D02*
X147334210Y-79879561D01*
X147334210Y-79879561D02*
X147334210Y-79022419D01*
X146667543Y-80022419D02*
X146762781Y-79974800D01*
X146762781Y-79974800D02*
X146810400Y-79879561D01*
X146810400Y-79879561D02*
X146810400Y-79022419D01*
D10*
X123704510Y-120679400D02*
X124847368Y-120679400D01*
D12*
X142961904Y-116804819D02*
X142961904Y-117614342D01*
X142961904Y-117614342D02*
X142914285Y-117709580D01*
X142914285Y-117709580D02*
X142866666Y-117757200D01*
X142866666Y-117757200D02*
X142771428Y-117804819D01*
X142771428Y-117804819D02*
X142580952Y-117804819D01*
X142580952Y-117804819D02*
X142485714Y-117757200D01*
X142485714Y-117757200D02*
X142438095Y-117709580D01*
X142438095Y-117709580D02*
X142390476Y-117614342D01*
X142390476Y-117614342D02*
X142390476Y-116804819D01*
X142009523Y-116804819D02*
X141390476Y-116804819D01*
X141390476Y-116804819D02*
X141723809Y-117185771D01*
X141723809Y-117185771D02*
X141580952Y-117185771D01*
X141580952Y-117185771D02*
X141485714Y-117233390D01*
X141485714Y-117233390D02*
X141438095Y-117281009D01*
X141438095Y-117281009D02*
X141390476Y-117376247D01*
X141390476Y-117376247D02*
X141390476Y-117614342D01*
X141390476Y-117614342D02*
X141438095Y-117709580D01*
X141438095Y-117709580D02*
X141485714Y-117757200D01*
X141485714Y-117757200D02*
X141580952Y-117804819D01*
X141580952Y-117804819D02*
X141866666Y-117804819D01*
X141866666Y-117804819D02*
X141961904Y-117757200D01*
X141961904Y-117757200D02*
X142009523Y-117709580D01*
D11*
X143725200Y-125943734D02*
X143677580Y-125800877D01*
X143677580Y-125800877D02*
X143677580Y-125562782D01*
X143677580Y-125562782D02*
X143725200Y-125467544D01*
X143725200Y-125467544D02*
X143772819Y-125419925D01*
X143772819Y-125419925D02*
X143868057Y-125372306D01*
X143868057Y-125372306D02*
X143963295Y-125372306D01*
X143963295Y-125372306D02*
X144058533Y-125419925D01*
X144058533Y-125419925D02*
X144106152Y-125467544D01*
X144106152Y-125467544D02*
X144153771Y-125562782D01*
X144153771Y-125562782D02*
X144201390Y-125753258D01*
X144201390Y-125753258D02*
X144249009Y-125848496D01*
X144249009Y-125848496D02*
X144296628Y-125896115D01*
X144296628Y-125896115D02*
X144391866Y-125943734D01*
X144391866Y-125943734D02*
X144487104Y-125943734D01*
X144487104Y-125943734D02*
X144582342Y-125896115D01*
X144582342Y-125896115D02*
X144629961Y-125848496D01*
X144629961Y-125848496D02*
X144677580Y-125753258D01*
X144677580Y-125753258D02*
X144677580Y-125515163D01*
X144677580Y-125515163D02*
X144629961Y-125372306D01*
X143772819Y-124372306D02*
X143725200Y-124419925D01*
X143725200Y-124419925D02*
X143677580Y-124562782D01*
X143677580Y-124562782D02*
X143677580Y-124658020D01*
X143677580Y-124658020D02*
X143725200Y-124800877D01*
X143725200Y-124800877D02*
X143820438Y-124896115D01*
X143820438Y-124896115D02*
X143915676Y-124943734D01*
X143915676Y-124943734D02*
X144106152Y-124991353D01*
X144106152Y-124991353D02*
X144249009Y-124991353D01*
X144249009Y-124991353D02*
X144439485Y-124943734D01*
X144439485Y-124943734D02*
X144534723Y-124896115D01*
X144534723Y-124896115D02*
X144629961Y-124800877D01*
X144629961Y-124800877D02*
X144677580Y-124658020D01*
X144677580Y-124658020D02*
X144677580Y-124562782D01*
X144677580Y-124562782D02*
X144629961Y-124419925D01*
X144629961Y-124419925D02*
X144582342Y-124372306D01*
X143677580Y-123467544D02*
X143677580Y-123943734D01*
X143677580Y-123943734D02*
X144677580Y-123943734D01*
X147129961Y-125622306D02*
X147177580Y-125717544D01*
X147177580Y-125717544D02*
X147177580Y-125860401D01*
X147177580Y-125860401D02*
X147129961Y-126003258D01*
X147129961Y-126003258D02*
X147034723Y-126098496D01*
X147034723Y-126098496D02*
X146939485Y-126146115D01*
X146939485Y-126146115D02*
X146749009Y-126193734D01*
X146749009Y-126193734D02*
X146606152Y-126193734D01*
X146606152Y-126193734D02*
X146415676Y-126146115D01*
X146415676Y-126146115D02*
X146320438Y-126098496D01*
X146320438Y-126098496D02*
X146225200Y-126003258D01*
X146225200Y-126003258D02*
X146177580Y-125860401D01*
X146177580Y-125860401D02*
X146177580Y-125765163D01*
X146177580Y-125765163D02*
X146225200Y-125622306D01*
X146225200Y-125622306D02*
X146272819Y-125574687D01*
X146272819Y-125574687D02*
X146606152Y-125574687D01*
X146606152Y-125574687D02*
X146606152Y-125765163D01*
X146844247Y-125146115D02*
X146177580Y-125146115D01*
X146749009Y-125146115D02*
X146796628Y-125098496D01*
X146796628Y-125098496D02*
X146844247Y-125003258D01*
X146844247Y-125003258D02*
X146844247Y-124860401D01*
X146844247Y-124860401D02*
X146796628Y-124765163D01*
X146796628Y-124765163D02*
X146701390Y-124717544D01*
X146701390Y-124717544D02*
X146177580Y-124717544D01*
X146177580Y-123812782D02*
X147177580Y-123812782D01*
X146225200Y-123812782D02*
X146177580Y-123908020D01*
X146177580Y-123908020D02*
X146177580Y-124098496D01*
X146177580Y-124098496D02*
X146225200Y-124193734D01*
X146225200Y-124193734D02*
X146272819Y-124241353D01*
X146272819Y-124241353D02*
X146368057Y-124288972D01*
X146368057Y-124288972D02*
X146653771Y-124288972D01*
X146653771Y-124288972D02*
X146749009Y-124241353D01*
X146749009Y-124241353D02*
X146796628Y-124193734D01*
X146796628Y-124193734D02*
X146844247Y-124098496D01*
X146844247Y-124098496D02*
X146844247Y-123908020D01*
X146844247Y-123908020D02*
X146796628Y-123812782D01*
X149677580Y-126038972D02*
X148677580Y-125705639D01*
X148677580Y-125705639D02*
X149677580Y-125372306D01*
X148677580Y-125038972D02*
X149344247Y-125038972D01*
X149677580Y-125038972D02*
X149629961Y-125086591D01*
X149629961Y-125086591D02*
X149582342Y-125038972D01*
X149582342Y-125038972D02*
X149629961Y-124991353D01*
X149629961Y-124991353D02*
X149677580Y-125038972D01*
X149677580Y-125038972D02*
X149582342Y-125038972D01*
X149344247Y-124562782D02*
X148677580Y-124562782D01*
X149249009Y-124562782D02*
X149296628Y-124515163D01*
X149296628Y-124515163D02*
X149344247Y-124419925D01*
X149344247Y-124419925D02*
X149344247Y-124277068D01*
X149344247Y-124277068D02*
X149296628Y-124181830D01*
X149296628Y-124181830D02*
X149201390Y-124134211D01*
X149201390Y-124134211D02*
X148677580Y-124134211D01*
X141225200Y-125943734D02*
X141177580Y-125800877D01*
X141177580Y-125800877D02*
X141177580Y-125562782D01*
X141177580Y-125562782D02*
X141225200Y-125467544D01*
X141225200Y-125467544D02*
X141272819Y-125419925D01*
X141272819Y-125419925D02*
X141368057Y-125372306D01*
X141368057Y-125372306D02*
X141463295Y-125372306D01*
X141463295Y-125372306D02*
X141558533Y-125419925D01*
X141558533Y-125419925D02*
X141606152Y-125467544D01*
X141606152Y-125467544D02*
X141653771Y-125562782D01*
X141653771Y-125562782D02*
X141701390Y-125753258D01*
X141701390Y-125753258D02*
X141749009Y-125848496D01*
X141749009Y-125848496D02*
X141796628Y-125896115D01*
X141796628Y-125896115D02*
X141891866Y-125943734D01*
X141891866Y-125943734D02*
X141987104Y-125943734D01*
X141987104Y-125943734D02*
X142082342Y-125896115D01*
X142082342Y-125896115D02*
X142129961Y-125848496D01*
X142129961Y-125848496D02*
X142177580Y-125753258D01*
X142177580Y-125753258D02*
X142177580Y-125515163D01*
X142177580Y-125515163D02*
X142129961Y-125372306D01*
X141177580Y-124943734D02*
X142177580Y-124943734D01*
X142177580Y-124943734D02*
X142177580Y-124705639D01*
X142177580Y-124705639D02*
X142129961Y-124562782D01*
X142129961Y-124562782D02*
X142034723Y-124467544D01*
X142034723Y-124467544D02*
X141939485Y-124419925D01*
X141939485Y-124419925D02*
X141749009Y-124372306D01*
X141749009Y-124372306D02*
X141606152Y-124372306D01*
X141606152Y-124372306D02*
X141415676Y-124419925D01*
X141415676Y-124419925D02*
X141320438Y-124467544D01*
X141320438Y-124467544D02*
X141225200Y-124562782D01*
X141225200Y-124562782D02*
X141177580Y-124705639D01*
X141177580Y-124705639D02*
X141177580Y-124943734D01*
X141463295Y-123991353D02*
X141463295Y-123515163D01*
X141177580Y-124086591D02*
X142177580Y-123753258D01*
X142177580Y-123753258D02*
X141177580Y-123419925D01*
X137177580Y-125991353D02*
X136177580Y-125324687D01*
X137177580Y-125324687D02*
X136177580Y-125991353D01*
X136225200Y-124991353D02*
X136177580Y-124848496D01*
X136177580Y-124848496D02*
X136177580Y-124610401D01*
X136177580Y-124610401D02*
X136225200Y-124515163D01*
X136225200Y-124515163D02*
X136272819Y-124467544D01*
X136272819Y-124467544D02*
X136368057Y-124419925D01*
X136368057Y-124419925D02*
X136463295Y-124419925D01*
X136463295Y-124419925D02*
X136558533Y-124467544D01*
X136558533Y-124467544D02*
X136606152Y-124515163D01*
X136606152Y-124515163D02*
X136653771Y-124610401D01*
X136653771Y-124610401D02*
X136701390Y-124800877D01*
X136701390Y-124800877D02*
X136749009Y-124896115D01*
X136749009Y-124896115D02*
X136796628Y-124943734D01*
X136796628Y-124943734D02*
X136891866Y-124991353D01*
X136891866Y-124991353D02*
X136987104Y-124991353D01*
X136987104Y-124991353D02*
X137082342Y-124943734D01*
X137082342Y-124943734D02*
X137129961Y-124896115D01*
X137129961Y-124896115D02*
X137177580Y-124800877D01*
X137177580Y-124800877D02*
X137177580Y-124562782D01*
X137177580Y-124562782D02*
X137129961Y-124419925D01*
X136177580Y-123991353D02*
X137177580Y-123991353D01*
X136701390Y-123991353D02*
X136701390Y-123419925D01*
X136177580Y-123419925D02*
X137177580Y-123419925D01*
X137177580Y-122943734D02*
X136368057Y-122943734D01*
X136368057Y-122943734D02*
X136272819Y-122896115D01*
X136272819Y-122896115D02*
X136225200Y-122848496D01*
X136225200Y-122848496D02*
X136177580Y-122753258D01*
X136177580Y-122753258D02*
X136177580Y-122562782D01*
X136177580Y-122562782D02*
X136225200Y-122467544D01*
X136225200Y-122467544D02*
X136272819Y-122419925D01*
X136272819Y-122419925D02*
X136368057Y-122372306D01*
X136368057Y-122372306D02*
X137177580Y-122372306D01*
X137177580Y-122038972D02*
X137177580Y-121467544D01*
X136177580Y-121753258D02*
X137177580Y-121753258D01*
X139629961Y-125372306D02*
X139677580Y-125467544D01*
X139677580Y-125467544D02*
X139677580Y-125610401D01*
X139677580Y-125610401D02*
X139629961Y-125753258D01*
X139629961Y-125753258D02*
X139534723Y-125848496D01*
X139534723Y-125848496D02*
X139439485Y-125896115D01*
X139439485Y-125896115D02*
X139249009Y-125943734D01*
X139249009Y-125943734D02*
X139106152Y-125943734D01*
X139106152Y-125943734D02*
X138915676Y-125896115D01*
X138915676Y-125896115D02*
X138820438Y-125848496D01*
X138820438Y-125848496D02*
X138725200Y-125753258D01*
X138725200Y-125753258D02*
X138677580Y-125610401D01*
X138677580Y-125610401D02*
X138677580Y-125515163D01*
X138677580Y-125515163D02*
X138725200Y-125372306D01*
X138725200Y-125372306D02*
X138772819Y-125324687D01*
X138772819Y-125324687D02*
X139106152Y-125324687D01*
X139106152Y-125324687D02*
X139106152Y-125515163D01*
X138677580Y-124896115D02*
X139677580Y-124896115D01*
X139677580Y-124896115D02*
X139677580Y-124515163D01*
X139677580Y-124515163D02*
X139629961Y-124419925D01*
X139629961Y-124419925D02*
X139582342Y-124372306D01*
X139582342Y-124372306D02*
X139487104Y-124324687D01*
X139487104Y-124324687D02*
X139344247Y-124324687D01*
X139344247Y-124324687D02*
X139249009Y-124372306D01*
X139249009Y-124372306D02*
X139201390Y-124419925D01*
X139201390Y-124419925D02*
X139153771Y-124515163D01*
X139153771Y-124515163D02*
X139153771Y-124896115D01*
X138677580Y-123896115D02*
X139677580Y-123896115D01*
X139677580Y-123229449D02*
X139677580Y-123134211D01*
X139677580Y-123134211D02*
X139629961Y-123038973D01*
X139629961Y-123038973D02*
X139582342Y-122991354D01*
X139582342Y-122991354D02*
X139487104Y-122943735D01*
X139487104Y-122943735D02*
X139296628Y-122896116D01*
X139296628Y-122896116D02*
X139058533Y-122896116D01*
X139058533Y-122896116D02*
X138868057Y-122943735D01*
X138868057Y-122943735D02*
X138772819Y-122991354D01*
X138772819Y-122991354D02*
X138725200Y-123038973D01*
X138725200Y-123038973D02*
X138677580Y-123134211D01*
X138677580Y-123134211D02*
X138677580Y-123229449D01*
X138677580Y-123229449D02*
X138725200Y-123324687D01*
X138725200Y-123324687D02*
X138772819Y-123372306D01*
X138772819Y-123372306D02*
X138868057Y-123419925D01*
X138868057Y-123419925D02*
X139058533Y-123467544D01*
X139058533Y-123467544D02*
X139296628Y-123467544D01*
X139296628Y-123467544D02*
X139487104Y-123419925D01*
X139487104Y-123419925D02*
X139582342Y-123372306D01*
X139582342Y-123372306D02*
X139629961Y-123324687D01*
X139629961Y-123324687D02*
X139677580Y-123229449D01*
X138677580Y-121943735D02*
X138677580Y-122515163D01*
X138677580Y-122229449D02*
X139677580Y-122229449D01*
X139677580Y-122229449D02*
X139534723Y-122324687D01*
X139534723Y-122324687D02*
X139439485Y-122419925D01*
X139439485Y-122419925D02*
X139391866Y-122515163D01*
X127133333Y-120407419D02*
X127133333Y-121121704D01*
X127133333Y-121121704D02*
X127180952Y-121264561D01*
X127180952Y-121264561D02*
X127276190Y-121359800D01*
X127276190Y-121359800D02*
X127419047Y-121407419D01*
X127419047Y-121407419D02*
X127514285Y-121407419D01*
X126133333Y-121407419D02*
X126704761Y-121407419D01*
X126419047Y-121407419D02*
X126419047Y-120407419D01*
X126419047Y-120407419D02*
X126514285Y-120550276D01*
X126514285Y-120550276D02*
X126609523Y-120645514D01*
X126609523Y-120645514D02*
X126704761Y-120693133D01*
D13*
%TO.C,U3*%
X135550000Y-118200000D02*
X135550000Y-121200000D01*
X135550000Y-118200000D02*
X150050000Y-118200000D01*
D11*
X135550000Y-121200000D02*
X133300000Y-121200000D01*
X135550000Y-126200000D02*
X133300000Y-126200000D01*
X135550000Y-126200000D02*
X135550000Y-129200000D01*
D13*
X150050000Y-118200000D02*
X150050000Y-121200000D01*
D11*
X150050000Y-121200000D02*
X152300000Y-121200000D01*
X150050000Y-126200000D02*
X150050000Y-129200000D01*
X150050000Y-126200000D02*
X152350000Y-126200000D01*
D13*
X150050000Y-129200000D02*
X135550000Y-129200000D01*
D11*
X133300000Y-126200000D02*
G75*
G02*
X133300000Y-121200000I0J2500000D01*
G01*
X152300000Y-121200000D02*
G75*
G02*
X152300000Y-126200000I0J-2500000D01*
G01*
X134550000Y-123700000D02*
G75*
G02*
X132050000Y-123700000I-1250000J0D01*
G01*
X132050000Y-123700000D02*
G75*
G02*
X134550000Y-123700000I1250000J0D01*
G01*
X153550000Y-123700000D02*
G75*
G02*
X151050000Y-123700000I-1250000J0D01*
G01*
X151050000Y-123700000D02*
G75*
G02*
X153550000Y-123700000I1250000J0D01*
G01*
%TO.C,J1*%
X123425000Y-113425000D02*
X130175000Y-113425000D01*
X130175000Y-120175000D01*
X123425000Y-120175000D01*
X123425000Y-113425000D01*
%TD*%
M02*
