%TF.GenerationSoftware,KiCad,Pcbnew,8.0.7-rc1-202411251621~6e6d3e9b03~ubuntu24.04.1*%
%TF.CreationDate,2024-12-02T09:23:21-06:00*%
%TF.ProjectId,delivery-box-reporter,64656c69-7665-4727-992d-626f782d7265,rev?*%
%TF.SameCoordinates,Original*%
%TF.FileFunction,Legend,Bot*%
%TF.FilePolarity,Positive*%
%FSLAX46Y46*%
G04 Gerber Fmt 4.6, Leading zero omitted, Abs format (unit mm)*
G04 Created by KiCad (PCBNEW 8.0.7-rc1-202411251621~6e6d3e9b03~ubuntu24.04.1) date 2024-12-02 09:23:21*
%MOMM*%
%LPD*%
G01*
G04 APERTURE LIST*
%ADD10C,0.100000*%
G04 APERTURE END LIST*
D10*
X158096115Y-75192587D02*
X158096115Y-74192587D01*
X158096115Y-74192587D02*
X157858020Y-74192587D01*
X157858020Y-74192587D02*
X157715163Y-74240206D01*
X157715163Y-74240206D02*
X157619925Y-74335444D01*
X157619925Y-74335444D02*
X157572306Y-74430682D01*
X157572306Y-74430682D02*
X157524687Y-74621158D01*
X157524687Y-74621158D02*
X157524687Y-74764015D01*
X157524687Y-74764015D02*
X157572306Y-74954491D01*
X157572306Y-74954491D02*
X157619925Y-75049729D01*
X157619925Y-75049729D02*
X157715163Y-75144968D01*
X157715163Y-75144968D02*
X157858020Y-75192587D01*
X157858020Y-75192587D02*
X158096115Y-75192587D01*
X156715163Y-75144968D02*
X156810401Y-75192587D01*
X156810401Y-75192587D02*
X157000877Y-75192587D01*
X157000877Y-75192587D02*
X157096115Y-75144968D01*
X157096115Y-75144968D02*
X157143734Y-75049729D01*
X157143734Y-75049729D02*
X157143734Y-74668777D01*
X157143734Y-74668777D02*
X157096115Y-74573539D01*
X157096115Y-74573539D02*
X157000877Y-74525920D01*
X157000877Y-74525920D02*
X156810401Y-74525920D01*
X156810401Y-74525920D02*
X156715163Y-74573539D01*
X156715163Y-74573539D02*
X156667544Y-74668777D01*
X156667544Y-74668777D02*
X156667544Y-74764015D01*
X156667544Y-74764015D02*
X157143734Y-74859253D01*
X156096115Y-75192587D02*
X156191353Y-75144968D01*
X156191353Y-75144968D02*
X156238972Y-75049729D01*
X156238972Y-75049729D02*
X156238972Y-74192587D01*
X155715162Y-75192587D02*
X155715162Y-74525920D01*
X155715162Y-74192587D02*
X155762781Y-74240206D01*
X155762781Y-74240206D02*
X155715162Y-74287825D01*
X155715162Y-74287825D02*
X155667543Y-74240206D01*
X155667543Y-74240206D02*
X155715162Y-74192587D01*
X155715162Y-74192587D02*
X155715162Y-74287825D01*
X155334210Y-74525920D02*
X155096115Y-75192587D01*
X155096115Y-75192587D02*
X154858020Y-74525920D01*
X154096115Y-75144968D02*
X154191353Y-75192587D01*
X154191353Y-75192587D02*
X154381829Y-75192587D01*
X154381829Y-75192587D02*
X154477067Y-75144968D01*
X154477067Y-75144968D02*
X154524686Y-75049729D01*
X154524686Y-75049729D02*
X154524686Y-74668777D01*
X154524686Y-74668777D02*
X154477067Y-74573539D01*
X154477067Y-74573539D02*
X154381829Y-74525920D01*
X154381829Y-74525920D02*
X154191353Y-74525920D01*
X154191353Y-74525920D02*
X154096115Y-74573539D01*
X154096115Y-74573539D02*
X154048496Y-74668777D01*
X154048496Y-74668777D02*
X154048496Y-74764015D01*
X154048496Y-74764015D02*
X154524686Y-74859253D01*
X153619924Y-75192587D02*
X153619924Y-74525920D01*
X153619924Y-74716396D02*
X153572305Y-74621158D01*
X153572305Y-74621158D02*
X153524686Y-74573539D01*
X153524686Y-74573539D02*
X153429448Y-74525920D01*
X153429448Y-74525920D02*
X153334210Y-74525920D01*
X153096114Y-74525920D02*
X152858019Y-75192587D01*
X152619924Y-74525920D02*
X152858019Y-75192587D01*
X152858019Y-75192587D02*
X152953257Y-75430682D01*
X152953257Y-75430682D02*
X153000876Y-75478301D01*
X153000876Y-75478301D02*
X153096114Y-75525920D01*
X151143733Y-74668777D02*
X151000876Y-74716396D01*
X151000876Y-74716396D02*
X150953257Y-74764015D01*
X150953257Y-74764015D02*
X150905638Y-74859253D01*
X150905638Y-74859253D02*
X150905638Y-75002110D01*
X150905638Y-75002110D02*
X150953257Y-75097348D01*
X150953257Y-75097348D02*
X151000876Y-75144968D01*
X151000876Y-75144968D02*
X151096114Y-75192587D01*
X151096114Y-75192587D02*
X151477066Y-75192587D01*
X151477066Y-75192587D02*
X151477066Y-74192587D01*
X151477066Y-74192587D02*
X151143733Y-74192587D01*
X151143733Y-74192587D02*
X151048495Y-74240206D01*
X151048495Y-74240206D02*
X151000876Y-74287825D01*
X151000876Y-74287825D02*
X150953257Y-74383063D01*
X150953257Y-74383063D02*
X150953257Y-74478301D01*
X150953257Y-74478301D02*
X151000876Y-74573539D01*
X151000876Y-74573539D02*
X151048495Y-74621158D01*
X151048495Y-74621158D02*
X151143733Y-74668777D01*
X151143733Y-74668777D02*
X151477066Y-74668777D01*
X150334209Y-75192587D02*
X150429447Y-75144968D01*
X150429447Y-75144968D02*
X150477066Y-75097348D01*
X150477066Y-75097348D02*
X150524685Y-75002110D01*
X150524685Y-75002110D02*
X150524685Y-74716396D01*
X150524685Y-74716396D02*
X150477066Y-74621158D01*
X150477066Y-74621158D02*
X150429447Y-74573539D01*
X150429447Y-74573539D02*
X150334209Y-74525920D01*
X150334209Y-74525920D02*
X150191352Y-74525920D01*
X150191352Y-74525920D02*
X150096114Y-74573539D01*
X150096114Y-74573539D02*
X150048495Y-74621158D01*
X150048495Y-74621158D02*
X150000876Y-74716396D01*
X150000876Y-74716396D02*
X150000876Y-75002110D01*
X150000876Y-75002110D02*
X150048495Y-75097348D01*
X150048495Y-75097348D02*
X150096114Y-75144968D01*
X150096114Y-75144968D02*
X150191352Y-75192587D01*
X150191352Y-75192587D02*
X150334209Y-75192587D01*
X149667542Y-75192587D02*
X149143733Y-74525920D01*
X149667542Y-74525920D02*
X149143733Y-75192587D01*
X147429447Y-75192587D02*
X147762780Y-74716396D01*
X148000875Y-75192587D02*
X148000875Y-74192587D01*
X148000875Y-74192587D02*
X147619923Y-74192587D01*
X147619923Y-74192587D02*
X147524685Y-74240206D01*
X147524685Y-74240206D02*
X147477066Y-74287825D01*
X147477066Y-74287825D02*
X147429447Y-74383063D01*
X147429447Y-74383063D02*
X147429447Y-74525920D01*
X147429447Y-74525920D02*
X147477066Y-74621158D01*
X147477066Y-74621158D02*
X147524685Y-74668777D01*
X147524685Y-74668777D02*
X147619923Y-74716396D01*
X147619923Y-74716396D02*
X148000875Y-74716396D01*
X146619923Y-75144968D02*
X146715161Y-75192587D01*
X146715161Y-75192587D02*
X146905637Y-75192587D01*
X146905637Y-75192587D02*
X147000875Y-75144968D01*
X147000875Y-75144968D02*
X147048494Y-75049729D01*
X147048494Y-75049729D02*
X147048494Y-74668777D01*
X147048494Y-74668777D02*
X147000875Y-74573539D01*
X147000875Y-74573539D02*
X146905637Y-74525920D01*
X146905637Y-74525920D02*
X146715161Y-74525920D01*
X146715161Y-74525920D02*
X146619923Y-74573539D01*
X146619923Y-74573539D02*
X146572304Y-74668777D01*
X146572304Y-74668777D02*
X146572304Y-74764015D01*
X146572304Y-74764015D02*
X147048494Y-74859253D01*
X146143732Y-74525920D02*
X146143732Y-75525920D01*
X146143732Y-74573539D02*
X146048494Y-74525920D01*
X146048494Y-74525920D02*
X145858018Y-74525920D01*
X145858018Y-74525920D02*
X145762780Y-74573539D01*
X145762780Y-74573539D02*
X145715161Y-74621158D01*
X145715161Y-74621158D02*
X145667542Y-74716396D01*
X145667542Y-74716396D02*
X145667542Y-75002110D01*
X145667542Y-75002110D02*
X145715161Y-75097348D01*
X145715161Y-75097348D02*
X145762780Y-75144968D01*
X145762780Y-75144968D02*
X145858018Y-75192587D01*
X145858018Y-75192587D02*
X146048494Y-75192587D01*
X146048494Y-75192587D02*
X146143732Y-75144968D01*
X145096113Y-75192587D02*
X145191351Y-75144968D01*
X145191351Y-75144968D02*
X145238970Y-75097348D01*
X145238970Y-75097348D02*
X145286589Y-75002110D01*
X145286589Y-75002110D02*
X145286589Y-74716396D01*
X145286589Y-74716396D02*
X145238970Y-74621158D01*
X145238970Y-74621158D02*
X145191351Y-74573539D01*
X145191351Y-74573539D02*
X145096113Y-74525920D01*
X145096113Y-74525920D02*
X144953256Y-74525920D01*
X144953256Y-74525920D02*
X144858018Y-74573539D01*
X144858018Y-74573539D02*
X144810399Y-74621158D01*
X144810399Y-74621158D02*
X144762780Y-74716396D01*
X144762780Y-74716396D02*
X144762780Y-75002110D01*
X144762780Y-75002110D02*
X144810399Y-75097348D01*
X144810399Y-75097348D02*
X144858018Y-75144968D01*
X144858018Y-75144968D02*
X144953256Y-75192587D01*
X144953256Y-75192587D02*
X145096113Y-75192587D01*
X144334208Y-75192587D02*
X144334208Y-74525920D01*
X144334208Y-74716396D02*
X144286589Y-74621158D01*
X144286589Y-74621158D02*
X144238970Y-74573539D01*
X144238970Y-74573539D02*
X144143732Y-74525920D01*
X144143732Y-74525920D02*
X144048494Y-74525920D01*
X143858017Y-74525920D02*
X143477065Y-74525920D01*
X143715160Y-74192587D02*
X143715160Y-75049729D01*
X143715160Y-75049729D02*
X143667541Y-75144968D01*
X143667541Y-75144968D02*
X143572303Y-75192587D01*
X143572303Y-75192587D02*
X143477065Y-75192587D01*
X142762779Y-75144968D02*
X142858017Y-75192587D01*
X142858017Y-75192587D02*
X143048493Y-75192587D01*
X143048493Y-75192587D02*
X143143731Y-75144968D01*
X143143731Y-75144968D02*
X143191350Y-75049729D01*
X143191350Y-75049729D02*
X143191350Y-74668777D01*
X143191350Y-74668777D02*
X143143731Y-74573539D01*
X143143731Y-74573539D02*
X143048493Y-74525920D01*
X143048493Y-74525920D02*
X142858017Y-74525920D01*
X142858017Y-74525920D02*
X142762779Y-74573539D01*
X142762779Y-74573539D02*
X142715160Y-74668777D01*
X142715160Y-74668777D02*
X142715160Y-74764015D01*
X142715160Y-74764015D02*
X143191350Y-74859253D01*
X142286588Y-75192587D02*
X142286588Y-74525920D01*
X142286588Y-74716396D02*
X142238969Y-74621158D01*
X142238969Y-74621158D02*
X142191350Y-74573539D01*
X142191350Y-74573539D02*
X142096112Y-74525920D01*
X142096112Y-74525920D02*
X142000874Y-74525920D01*
X158238972Y-75802531D02*
X157905639Y-76802531D01*
X157905639Y-76802531D02*
X157572306Y-75802531D01*
X156858020Y-76754912D02*
X156953258Y-76802531D01*
X156953258Y-76802531D02*
X157143734Y-76802531D01*
X157143734Y-76802531D02*
X157238972Y-76754912D01*
X157238972Y-76754912D02*
X157286591Y-76659673D01*
X157286591Y-76659673D02*
X157286591Y-76278721D01*
X157286591Y-76278721D02*
X157238972Y-76183483D01*
X157238972Y-76183483D02*
X157143734Y-76135864D01*
X157143734Y-76135864D02*
X156953258Y-76135864D01*
X156953258Y-76135864D02*
X156858020Y-76183483D01*
X156858020Y-76183483D02*
X156810401Y-76278721D01*
X156810401Y-76278721D02*
X156810401Y-76373959D01*
X156810401Y-76373959D02*
X157286591Y-76469197D01*
X156381829Y-76802531D02*
X156381829Y-76135864D01*
X156381829Y-76326340D02*
X156334210Y-76231102D01*
X156334210Y-76231102D02*
X156286591Y-76183483D01*
X156286591Y-76183483D02*
X156191353Y-76135864D01*
X156191353Y-76135864D02*
X156096115Y-76135864D01*
X155810400Y-76754912D02*
X155715162Y-76802531D01*
X155715162Y-76802531D02*
X155524686Y-76802531D01*
X155524686Y-76802531D02*
X155429448Y-76754912D01*
X155429448Y-76754912D02*
X155381829Y-76659673D01*
X155381829Y-76659673D02*
X155381829Y-76612054D01*
X155381829Y-76612054D02*
X155429448Y-76516816D01*
X155429448Y-76516816D02*
X155524686Y-76469197D01*
X155524686Y-76469197D02*
X155667543Y-76469197D01*
X155667543Y-76469197D02*
X155762781Y-76421578D01*
X155762781Y-76421578D02*
X155810400Y-76326340D01*
X155810400Y-76326340D02*
X155810400Y-76278721D01*
X155810400Y-76278721D02*
X155762781Y-76183483D01*
X155762781Y-76183483D02*
X155667543Y-76135864D01*
X155667543Y-76135864D02*
X155524686Y-76135864D01*
X155524686Y-76135864D02*
X155429448Y-76183483D01*
X154953257Y-76802531D02*
X154953257Y-76135864D01*
X154953257Y-75802531D02*
X155000876Y-75850150D01*
X155000876Y-75850150D02*
X154953257Y-75897769D01*
X154953257Y-75897769D02*
X154905638Y-75850150D01*
X154905638Y-75850150D02*
X154953257Y-75802531D01*
X154953257Y-75802531D02*
X154953257Y-75897769D01*
X154334210Y-76802531D02*
X154429448Y-76754912D01*
X154429448Y-76754912D02*
X154477067Y-76707292D01*
X154477067Y-76707292D02*
X154524686Y-76612054D01*
X154524686Y-76612054D02*
X154524686Y-76326340D01*
X154524686Y-76326340D02*
X154477067Y-76231102D01*
X154477067Y-76231102D02*
X154429448Y-76183483D01*
X154429448Y-76183483D02*
X154334210Y-76135864D01*
X154334210Y-76135864D02*
X154191353Y-76135864D01*
X154191353Y-76135864D02*
X154096115Y-76183483D01*
X154096115Y-76183483D02*
X154048496Y-76231102D01*
X154048496Y-76231102D02*
X154000877Y-76326340D01*
X154000877Y-76326340D02*
X154000877Y-76612054D01*
X154000877Y-76612054D02*
X154048496Y-76707292D01*
X154048496Y-76707292D02*
X154096115Y-76754912D01*
X154096115Y-76754912D02*
X154191353Y-76802531D01*
X154191353Y-76802531D02*
X154334210Y-76802531D01*
X153572305Y-76135864D02*
X153572305Y-76802531D01*
X153572305Y-76231102D02*
X153524686Y-76183483D01*
X153524686Y-76183483D02*
X153429448Y-76135864D01*
X153429448Y-76135864D02*
X153286591Y-76135864D01*
X153286591Y-76135864D02*
X153191353Y-76183483D01*
X153191353Y-76183483D02*
X153143734Y-76278721D01*
X153143734Y-76278721D02*
X153143734Y-76802531D01*
X151381829Y-76802531D02*
X151953257Y-76802531D01*
X151667543Y-76802531D02*
X151667543Y-75802531D01*
X151667543Y-75802531D02*
X151762781Y-75945388D01*
X151762781Y-75945388D02*
X151858019Y-76040626D01*
X151858019Y-76040626D02*
X151953257Y-76088245D01*
X150953257Y-76707292D02*
X150905638Y-76754912D01*
X150905638Y-76754912D02*
X150953257Y-76802531D01*
X150953257Y-76802531D02*
X151000876Y-76754912D01*
X151000876Y-76754912D02*
X150953257Y-76707292D01*
X150953257Y-76707292D02*
X150953257Y-76802531D01*
X150286591Y-75802531D02*
X150191353Y-75802531D01*
X150191353Y-75802531D02*
X150096115Y-75850150D01*
X150096115Y-75850150D02*
X150048496Y-75897769D01*
X150048496Y-75897769D02*
X150000877Y-75993007D01*
X150000877Y-75993007D02*
X149953258Y-76183483D01*
X149953258Y-76183483D02*
X149953258Y-76421578D01*
X149953258Y-76421578D02*
X150000877Y-76612054D01*
X150000877Y-76612054D02*
X150048496Y-76707292D01*
X150048496Y-76707292D02*
X150096115Y-76754912D01*
X150096115Y-76754912D02*
X150191353Y-76802531D01*
X150191353Y-76802531D02*
X150286591Y-76802531D01*
X150286591Y-76802531D02*
X150381829Y-76754912D01*
X150381829Y-76754912D02*
X150429448Y-76707292D01*
X150429448Y-76707292D02*
X150477067Y-76612054D01*
X150477067Y-76612054D02*
X150524686Y-76421578D01*
X150524686Y-76421578D02*
X150524686Y-76183483D01*
X150524686Y-76183483D02*
X150477067Y-75993007D01*
X150477067Y-75993007D02*
X150429448Y-75897769D01*
X150429448Y-75897769D02*
X150381829Y-75850150D01*
X150381829Y-75850150D02*
X150286591Y-75802531D01*
X157572306Y-78412475D02*
X158143734Y-78412475D01*
X157858020Y-78412475D02*
X157858020Y-77412475D01*
X157858020Y-77412475D02*
X157953258Y-77555332D01*
X157953258Y-77555332D02*
X158048496Y-77650570D01*
X158048496Y-77650570D02*
X158143734Y-77698189D01*
X157191353Y-77507713D02*
X157143734Y-77460094D01*
X157143734Y-77460094D02*
X157048496Y-77412475D01*
X157048496Y-77412475D02*
X156810401Y-77412475D01*
X156810401Y-77412475D02*
X156715163Y-77460094D01*
X156715163Y-77460094D02*
X156667544Y-77507713D01*
X156667544Y-77507713D02*
X156619925Y-77602951D01*
X156619925Y-77602951D02*
X156619925Y-77698189D01*
X156619925Y-77698189D02*
X156667544Y-77841046D01*
X156667544Y-77841046D02*
X157238972Y-78412475D01*
X157238972Y-78412475D02*
X156619925Y-78412475D01*
X156191353Y-78031522D02*
X155429449Y-78031522D01*
X155000877Y-77507713D02*
X154953258Y-77460094D01*
X154953258Y-77460094D02*
X154858020Y-77412475D01*
X154858020Y-77412475D02*
X154619925Y-77412475D01*
X154619925Y-77412475D02*
X154524687Y-77460094D01*
X154524687Y-77460094D02*
X154477068Y-77507713D01*
X154477068Y-77507713D02*
X154429449Y-77602951D01*
X154429449Y-77602951D02*
X154429449Y-77698189D01*
X154429449Y-77698189D02*
X154477068Y-77841046D01*
X154477068Y-77841046D02*
X155048496Y-78412475D01*
X155048496Y-78412475D02*
X154429449Y-78412475D01*
X154000877Y-78031522D02*
X153238973Y-78031522D01*
X152810401Y-77507713D02*
X152762782Y-77460094D01*
X152762782Y-77460094D02*
X152667544Y-77412475D01*
X152667544Y-77412475D02*
X152429449Y-77412475D01*
X152429449Y-77412475D02*
X152334211Y-77460094D01*
X152334211Y-77460094D02*
X152286592Y-77507713D01*
X152286592Y-77507713D02*
X152238973Y-77602951D01*
X152238973Y-77602951D02*
X152238973Y-77698189D01*
X152238973Y-77698189D02*
X152286592Y-77841046D01*
X152286592Y-77841046D02*
X152858020Y-78412475D01*
X152858020Y-78412475D02*
X152238973Y-78412475D01*
X151381830Y-77745808D02*
X151381830Y-78412475D01*
X151619925Y-77364856D02*
X151858020Y-78079141D01*
X151858020Y-78079141D02*
X151238973Y-78079141D01*
X158096115Y-80022419D02*
X158096115Y-79022419D01*
X158096115Y-79022419D02*
X157858020Y-79022419D01*
X157858020Y-79022419D02*
X157715163Y-79070038D01*
X157715163Y-79070038D02*
X157619925Y-79165276D01*
X157619925Y-79165276D02*
X157572306Y-79260514D01*
X157572306Y-79260514D02*
X157524687Y-79450990D01*
X157524687Y-79450990D02*
X157524687Y-79593847D01*
X157524687Y-79593847D02*
X157572306Y-79784323D01*
X157572306Y-79784323D02*
X157619925Y-79879561D01*
X157619925Y-79879561D02*
X157715163Y-79974800D01*
X157715163Y-79974800D02*
X157858020Y-80022419D01*
X157858020Y-80022419D02*
X158096115Y-80022419D01*
X156667544Y-80022419D02*
X156667544Y-79498609D01*
X156667544Y-79498609D02*
X156715163Y-79403371D01*
X156715163Y-79403371D02*
X156810401Y-79355752D01*
X156810401Y-79355752D02*
X157000877Y-79355752D01*
X157000877Y-79355752D02*
X157096115Y-79403371D01*
X156667544Y-79974800D02*
X156762782Y-80022419D01*
X156762782Y-80022419D02*
X157000877Y-80022419D01*
X157000877Y-80022419D02*
X157096115Y-79974800D01*
X157096115Y-79974800D02*
X157143734Y-79879561D01*
X157143734Y-79879561D02*
X157143734Y-79784323D01*
X157143734Y-79784323D02*
X157096115Y-79689085D01*
X157096115Y-79689085D02*
X157000877Y-79641466D01*
X157000877Y-79641466D02*
X156762782Y-79641466D01*
X156762782Y-79641466D02*
X156667544Y-79593847D01*
X156286591Y-79355752D02*
X156048496Y-80022419D01*
X156048496Y-80022419D02*
X155810401Y-79355752D01*
X155429448Y-80022419D02*
X155429448Y-79355752D01*
X155429448Y-79022419D02*
X155477067Y-79070038D01*
X155477067Y-79070038D02*
X155429448Y-79117657D01*
X155429448Y-79117657D02*
X155381829Y-79070038D01*
X155381829Y-79070038D02*
X155429448Y-79022419D01*
X155429448Y-79022419D02*
X155429448Y-79117657D01*
X154524687Y-80022419D02*
X154524687Y-79022419D01*
X154524687Y-79974800D02*
X154619925Y-80022419D01*
X154619925Y-80022419D02*
X154810401Y-80022419D01*
X154810401Y-80022419D02*
X154905639Y-79974800D01*
X154905639Y-79974800D02*
X154953258Y-79927180D01*
X154953258Y-79927180D02*
X155000877Y-79831942D01*
X155000877Y-79831942D02*
X155000877Y-79546228D01*
X155000877Y-79546228D02*
X154953258Y-79450990D01*
X154953258Y-79450990D02*
X154905639Y-79403371D01*
X154905639Y-79403371D02*
X154810401Y-79355752D01*
X154810401Y-79355752D02*
X154619925Y-79355752D01*
X154619925Y-79355752D02*
X154524687Y-79403371D01*
X153286591Y-79498609D02*
X152953258Y-79498609D01*
X152810401Y-80022419D02*
X153286591Y-80022419D01*
X153286591Y-80022419D02*
X153286591Y-79022419D01*
X153286591Y-79022419D02*
X152810401Y-79022419D01*
X152381829Y-79927180D02*
X152334210Y-79974800D01*
X152334210Y-79974800D02*
X152381829Y-80022419D01*
X152381829Y-80022419D02*
X152429448Y-79974800D01*
X152429448Y-79974800D02*
X152381829Y-79927180D01*
X152381829Y-79927180D02*
X152381829Y-80022419D01*
X151143734Y-80022419D02*
X151143734Y-79022419D01*
X151143734Y-79022419D02*
X150762782Y-79022419D01*
X150762782Y-79022419D02*
X150667544Y-79070038D01*
X150667544Y-79070038D02*
X150619925Y-79117657D01*
X150619925Y-79117657D02*
X150572306Y-79212895D01*
X150572306Y-79212895D02*
X150572306Y-79355752D01*
X150572306Y-79355752D02*
X150619925Y-79450990D01*
X150619925Y-79450990D02*
X150667544Y-79498609D01*
X150667544Y-79498609D02*
X150762782Y-79546228D01*
X150762782Y-79546228D02*
X151143734Y-79546228D01*
X150000877Y-80022419D02*
X150096115Y-79974800D01*
X150096115Y-79974800D02*
X150143734Y-79927180D01*
X150143734Y-79927180D02*
X150191353Y-79831942D01*
X150191353Y-79831942D02*
X150191353Y-79546228D01*
X150191353Y-79546228D02*
X150143734Y-79450990D01*
X150143734Y-79450990D02*
X150096115Y-79403371D01*
X150096115Y-79403371D02*
X150000877Y-79355752D01*
X150000877Y-79355752D02*
X149858020Y-79355752D01*
X149858020Y-79355752D02*
X149762782Y-79403371D01*
X149762782Y-79403371D02*
X149715163Y-79450990D01*
X149715163Y-79450990D02*
X149667544Y-79546228D01*
X149667544Y-79546228D02*
X149667544Y-79831942D01*
X149667544Y-79831942D02*
X149715163Y-79927180D01*
X149715163Y-79927180D02*
X149762782Y-79974800D01*
X149762782Y-79974800D02*
X149858020Y-80022419D01*
X149858020Y-80022419D02*
X150000877Y-80022419D01*
X149334210Y-79355752D02*
X149143734Y-80022419D01*
X149143734Y-80022419D02*
X148953258Y-79546228D01*
X148953258Y-79546228D02*
X148762782Y-80022419D01*
X148762782Y-80022419D02*
X148572306Y-79355752D01*
X147810401Y-79974800D02*
X147905639Y-80022419D01*
X147905639Y-80022419D02*
X148096115Y-80022419D01*
X148096115Y-80022419D02*
X148191353Y-79974800D01*
X148191353Y-79974800D02*
X148238972Y-79879561D01*
X148238972Y-79879561D02*
X148238972Y-79498609D01*
X148238972Y-79498609D02*
X148191353Y-79403371D01*
X148191353Y-79403371D02*
X148096115Y-79355752D01*
X148096115Y-79355752D02*
X147905639Y-79355752D01*
X147905639Y-79355752D02*
X147810401Y-79403371D01*
X147810401Y-79403371D02*
X147762782Y-79498609D01*
X147762782Y-79498609D02*
X147762782Y-79593847D01*
X147762782Y-79593847D02*
X148238972Y-79689085D01*
X147191353Y-80022419D02*
X147286591Y-79974800D01*
X147286591Y-79974800D02*
X147334210Y-79879561D01*
X147334210Y-79879561D02*
X147334210Y-79022419D01*
X146667543Y-80022419D02*
X146762781Y-79974800D01*
X146762781Y-79974800D02*
X146810400Y-79879561D01*
X146810400Y-79879561D02*
X146810400Y-79022419D01*
M02*
