%TF.GenerationSoftware,KiCad,Pcbnew,8.0.7-rc1-202411251621~6e6d3e9b03~ubuntu24.04.1*%
%TF.CreationDate,2024-12-02T09:23:21-06:00*%
%TF.ProjectId,delivery-box-reporter,64656c69-7665-4727-992d-626f782d7265,rev?*%
%TF.SameCoordinates,Original*%
%TF.FileFunction,Copper,L2,Bot*%
%TF.FilePolarity,Positive*%
%FSLAX46Y46*%
G04 Gerber Fmt 4.6, Leading zero omitted, Abs format (unit mm)*
G04 Created by KiCad (PCBNEW 8.0.7-rc1-202411251621~6e6d3e9b03~ubuntu24.04.1) date 2024-12-02 09:23:21*
%MOMM*%
%LPD*%
G01*
G04 APERTURE LIST*
%TA.AperFunction,ComponentPad*%
%ADD10R,1.200000X2.000000*%
%TD*%
%TA.AperFunction,ComponentPad*%
%ADD11O,1.200000X2.000000*%
%TD*%
%TA.AperFunction,ComponentPad*%
%ADD12R,1.524000X1.524000*%
%TD*%
%TA.AperFunction,ComponentPad*%
%ADD13C,1.524000*%
%TD*%
%TA.AperFunction,ComponentPad*%
%ADD14R,1.050000X1.500000*%
%TD*%
%TA.AperFunction,ComponentPad*%
%ADD15O,1.050000X1.500000*%
%TD*%
%TA.AperFunction,ComponentPad*%
%ADD16R,2.000000X2.000000*%
%TD*%
%TA.AperFunction,ComponentPad*%
%ADD17O,1.600000X2.000000*%
%TD*%
%TA.AperFunction,Conductor*%
%ADD18C,0.200000*%
%TD*%
G04 APERTURE END LIST*
D10*
%TO.P,U3,1,Vin*%
%TO.N,+3.3V*%
X149150000Y-119450000D03*
D11*
%TO.P,U3,2,GND*%
%TO.N,Earth*%
X146610000Y-119450000D03*
%TO.P,U3,3,SCL*%
%TO.N,Net-(DISP1-SCL)*%
X144070000Y-119450000D03*
%TO.P,U3,4,SDA*%
%TO.N,Net-(DISP1-SDA)*%
X141530000Y-119450000D03*
%TO.P,U3,5,GPIO1*%
%TO.N,unconnected-(U3-GPIO1-Pad5)*%
X138990000Y-119450000D03*
%TO.P,U3,6,XSHUT*%
%TO.N,Net-(U1-MISO{slash}D6)*%
X136450000Y-119450000D03*
%TD*%
D12*
%TO.P,J1,1,Pin_1*%
%TO.N,Net-(J1-Pin_1)*%
X126800000Y-115050000D03*
D13*
%TO.P,J1,2,Pin_2*%
%TO.N,Earth*%
X126800000Y-118550000D03*
%TD*%
D14*
%TO.P,U5,1,GND*%
%TO.N,Earth*%
X156135000Y-116650000D03*
D15*
%TO.P,U5,2,VI*%
%TO.N,Net-(J1-Pin_1)*%
X157405000Y-116650000D03*
%TO.P,U5,3,VO*%
%TO.N,+3.3V*%
X158675000Y-116650000D03*
%TD*%
D12*
%TO.P,DISP1,1,Gnd*%
%TO.N,Net-(DISP1-Gnd)*%
X125200000Y-109600000D03*
D13*
%TO.P,DISP1,2,Vcc*%
%TO.N,+3.3V*%
X125200000Y-107060000D03*
%TO.P,DISP1,3,SCL*%
%TO.N,Net-(DISP1-SCL)*%
X125200000Y-104520000D03*
%TO.P,DISP1,4,SDA*%
%TO.N,Net-(DISP1-SDA)*%
X125200000Y-101980000D03*
%TD*%
D16*
%TO.P,U1,1,~{RST}*%
%TO.N,Net-(D1-A)*%
X133640000Y-95200000D03*
D17*
%TO.P,U1,2,A0*%
%TO.N,unconnected-(U1-A0-Pad2)*%
X136180000Y-95200000D03*
%TO.P,U1,3,D0*%
%TO.N,Net-(D1-K)*%
X138720000Y-95200000D03*
%TO.P,U1,4,SCK/D5*%
%TO.N,unconnected-(U1-SCK{slash}D5-Pad4)*%
X141260000Y-95200000D03*
%TO.P,U1,5,MISO/D6*%
%TO.N,Net-(U1-MISO{slash}D6)*%
X143800000Y-95200000D03*
%TO.P,U1,6,MOSI/D7*%
%TO.N,Net-(U1-MOSI{slash}D7)*%
X146340000Y-95200000D03*
%TO.P,U1,7,CS/D8*%
%TO.N,unconnected-(U1-CS{slash}D8-Pad7)*%
X148880000Y-95200000D03*
%TO.P,U1,8,3V3*%
%TO.N,+3.3V*%
X151420000Y-95200000D03*
%TO.P,U1,9,5V*%
%TO.N,unconnected-(U1-5V-Pad9)*%
X151420000Y-72340000D03*
%TO.P,U1,10,GND*%
%TO.N,unconnected-(U1-GND-Pad10)*%
X148880000Y-72340000D03*
%TO.P,U1,11,D4*%
%TO.N,unconnected-(U1-D4-Pad11)*%
X146340000Y-72340000D03*
%TO.P,U1,12,D3*%
%TO.N,unconnected-(U1-D3-Pad12)*%
X143800000Y-72340000D03*
%TO.P,U1,13,SDA/D2*%
%TO.N,Net-(DISP1-SDA)*%
X141260000Y-72340000D03*
%TO.P,U1,14,SCL/D1*%
%TO.N,Net-(DISP1-SCL)*%
X138720000Y-72340000D03*
%TO.P,U1,15,RX*%
%TO.N,unconnected-(U1-RX-Pad15)*%
X136180000Y-72340000D03*
%TO.P,U1,16,TX*%
%TO.N,unconnected-(U1-TX-Pad16)*%
X133640000Y-72340000D03*
%TD*%
D18*
%TO.N,Net-(J1-Pin_1)*%
X126800000Y-115050000D02*
X125838000Y-115050000D01*
X125838000Y-115050000D02*
X123400000Y-112612000D01*
X123400000Y-112612000D02*
X123400000Y-101050000D01*
X123400000Y-101050000D02*
X124450000Y-100000000D01*
X124450000Y-100000000D02*
X141705000Y-100000000D01*
X141705000Y-100000000D02*
X157405000Y-115700000D01*
X157405000Y-115700000D02*
X157405000Y-116650000D01*
%TO.N,+3.3V*%
X153400000Y-120000000D02*
X152850000Y-119450000D01*
X152850000Y-119450000D02*
X149150000Y-119450000D01*
%TO.N,Net-(DISP1-SCL)*%
X144070000Y-119450000D02*
X144070000Y-106720000D01*
X144070000Y-106720000D02*
X141870000Y-104520000D01*
X141870000Y-104520000D02*
X125200000Y-104520000D01*
%TO.N,+3.3V*%
X158675000Y-116650000D02*
X158675000Y-118575000D01*
X158675000Y-118575000D02*
X157250000Y-120000000D01*
X157250000Y-120000000D02*
X153400000Y-120000000D01*
%TD*%
M02*
