M48
; DRILL file {KiCad 8.0.7-unknown-202412111143~94124538da~ubuntu24.04.1} date 2024-12-18T03:39:09-0600
; FORMAT={-:-/ absolute / inch / decimal}
; #@! TF.CreationDate,2024-12-18T03:39:09-06:00
; #@! TF.GenerationSoftware,Kicad,Pcbnew,8.0.7-unknown-202412111143~94124538da~ubuntu24.04.1
; #@! TF.FileFunction,Plated,1,2,PTH
FMAT,2
INCH
; #@! TA.AperFunction,Plated,PTH,ComponentDrill
T1C0.0295
; #@! TA.AperFunction,Plated,PTH,ComponentDrill
T2C0.0300
; #@! TA.AperFunction,Plated,PTH,ComponentDrill
T3C0.0315
; #@! TA.AperFunction,Plated,PTH,ComponentDrill
T4C0.0394
%
G90
G05
T1
X6.147Y-4.5925
X6.197Y-4.5925
X6.247Y-4.5925
T2
X4.9291Y-4.015
X4.9291Y-4.115
X4.9291Y-4.215
X4.9291Y-4.315
T3
X5.372Y-4.7028
X5.372Y-5.0374
X5.472Y-4.7028
X5.472Y-5.0374
X5.572Y-4.7028
X5.572Y-5.0374
X5.672Y-4.7028
X5.672Y-5.0374
X5.772Y-4.7028
X5.772Y-5.0374
X5.872Y-4.7028
X5.872Y-5.0374
T4
X4.9921Y-4.5295
X4.9921Y-4.6673
X5.2614Y-2.848
X5.2614Y-3.748
X5.3614Y-2.848
X5.3614Y-3.748
X5.4614Y-2.848
X5.4614Y-3.748
X5.5614Y-2.848
X5.5614Y-3.748
X5.6614Y-2.848
X5.6614Y-3.748
X5.7614Y-2.848
X5.7614Y-3.748
X5.8614Y-2.848
X5.8614Y-3.748
X5.9614Y-2.848
X5.9614Y-3.748
M30
