%TF.GenerationSoftware,KiCad,Pcbnew,8.0.7-rc1-202411251621~6e6d3e9b03~ubuntu24.04.1*%
%TF.CreationDate,2024-12-02T09:23:22-06:00*%
%TF.ProjectId,delivery-box-reporter,64656c69-7665-4727-992d-626f782d7265,rev?*%
%TF.SameCoordinates,Original*%
%TF.FileFunction,Soldermask,Top*%
%TF.FilePolarity,Negative*%
%FSLAX46Y46*%
G04 Gerber Fmt 4.6, Leading zero omitted, Abs format (unit mm)*
G04 Created by KiCad (PCBNEW 8.0.7-rc1-202411251621~6e6d3e9b03~ubuntu24.04.1) date 2024-12-02 09:23:22*
%MOMM*%
%LPD*%
G01*
G04 APERTURE LIST*
G04 Aperture macros list*
%AMRoundRect*
0 Rectangle with rounded corners*
0 $1 Rounding radius*
0 $2 $3 $4 $5 $6 $7 $8 $9 X,Y pos of 4 corners*
0 Add a 4 corners polygon primitive as box body*
4,1,4,$2,$3,$4,$5,$6,$7,$8,$9,$2,$3,0*
0 Add four circle primitives for the rounded corners*
1,1,$1+$1,$2,$3*
1,1,$1+$1,$4,$5*
1,1,$1+$1,$6,$7*
1,1,$1+$1,$8,$9*
0 Add four rect primitives between the rounded corners*
20,1,$1+$1,$2,$3,$4,$5,0*
20,1,$1+$1,$4,$5,$6,$7,0*
20,1,$1+$1,$6,$7,$8,$9,0*
20,1,$1+$1,$8,$9,$2,$3,0*%
G04 Aperture macros list end*
%ADD10R,1.200000X2.000000*%
%ADD11O,1.200000X2.000000*%
%ADD12R,1.524000X1.524000*%
%ADD13C,1.524000*%
%ADD14R,1.050000X1.500000*%
%ADD15O,1.050000X1.500000*%
%ADD16RoundRect,0.150000X-0.587500X-0.150000X0.587500X-0.150000X0.587500X0.150000X-0.587500X0.150000X0*%
%ADD17RoundRect,0.250000X-0.262500X-0.450000X0.262500X-0.450000X0.262500X0.450000X-0.262500X0.450000X0*%
%ADD18RoundRect,0.150000X0.587500X0.150000X-0.587500X0.150000X-0.587500X-0.150000X0.587500X-0.150000X0*%
%ADD19R,2.000000X2.000000*%
%ADD20O,1.600000X2.000000*%
%ADD21RoundRect,0.250000X0.262500X0.450000X-0.262500X0.450000X-0.262500X-0.450000X0.262500X-0.450000X0*%
G04 APERTURE END LIST*
D10*
%TO.C,U3*%
X149150000Y-119450000D03*
D11*
X146610000Y-119450000D03*
X144070000Y-119450000D03*
X141530000Y-119450000D03*
X138990000Y-119450000D03*
X136450000Y-119450000D03*
%TD*%
D12*
%TO.C,J1*%
X126800000Y-115050000D03*
D13*
X126800000Y-118550000D03*
%TD*%
D14*
%TO.C,U5*%
X156135000Y-116650000D03*
D15*
X157405000Y-116650000D03*
X158675000Y-116650000D03*
%TD*%
D16*
%TO.C,U4*%
X156675000Y-121850000D03*
X156675000Y-123750000D03*
X158550000Y-122800000D03*
%TD*%
D17*
%TO.C,R3*%
X136750000Y-116600000D03*
X138575000Y-116600000D03*
%TD*%
%TO.C,R2*%
X142575000Y-115150000D03*
X144400000Y-115150000D03*
%TD*%
%TO.C,R1*%
X131475000Y-119200000D03*
X133300000Y-119200000D03*
%TD*%
D18*
%TO.C,Q2*%
X133737500Y-116212500D03*
X133737500Y-114312500D03*
X131862500Y-115262500D03*
%TD*%
D12*
%TO.C,DISP1*%
X125200000Y-109600000D03*
D13*
X125200000Y-107060000D03*
X125200000Y-104520000D03*
X125200000Y-101980000D03*
%TD*%
D19*
%TO.C,U1*%
X133640000Y-95200000D03*
D20*
X136180000Y-95200000D03*
X138720000Y-95200000D03*
X141260000Y-95200000D03*
X143800000Y-95200000D03*
X146340000Y-95200000D03*
X148880000Y-95200000D03*
X151420000Y-95200000D03*
X151420000Y-72340000D03*
X148880000Y-72340000D03*
X146340000Y-72340000D03*
X143800000Y-72340000D03*
X141260000Y-72340000D03*
X138720000Y-72340000D03*
X136180000Y-72340000D03*
X133640000Y-72340000D03*
%TD*%
D21*
%TO.C,D1*%
X137800000Y-98200000D03*
X135975000Y-98200000D03*
%TD*%
M02*
