%TF.GenerationSoftware,KiCad,Pcbnew,8.0.7-unknown-202412111143~94124538da~ubuntu24.04.1*%
%TF.CreationDate,2024-12-18T03:39:21-06:00*%
%TF.ProjectId,delivery-box-reporter,64656c69-7665-4727-992d-626f782d7265,rev?*%
%TF.SameCoordinates,Original*%
%TF.FileFunction,Legend,Top*%
%TF.FilePolarity,Positive*%
%FSLAX46Y46*%
G04 Gerber Fmt 4.6, Leading zero omitted, Abs format (unit mm)*
G04 Created by KiCad (PCBNEW 8.0.7-unknown-202412111143~94124538da~ubuntu24.04.1) date 2024-12-18 03:39:21*
%MOMM*%
%LPD*%
G01*
G04 APERTURE LIST*
%ADD10C,0.100000*%
%ADD11C,0.150000*%
%ADD12C,0.120000*%
G04 APERTURE END LIST*
D10*
X137425000Y-100475000D02*
X136325000Y-101050000D01*
X136325000Y-99900000D01*
X137425000Y-100475000D01*
G36*
X137425000Y-100475000D02*
G01*
X136325000Y-101050000D01*
X136325000Y-99900000D01*
X137425000Y-100475000D01*
G37*
X136325000Y-101050000D02*
X137425000Y-100475000D01*
X136325000Y-99900000D02*
X136325000Y-101050000D01*
X137425000Y-100475000D02*
X136325000Y-99900000D01*
X137425000Y-99850000D02*
X137425000Y-101100000D01*
X135525000Y-100500000D02*
X138075000Y-100500000D01*
X124658533Y-114703884D02*
X124658533Y-115465789D01*
X124277580Y-115084836D02*
X125039485Y-115084836D01*
X125277580Y-115846741D02*
X125277580Y-116465788D01*
X125277580Y-116465788D02*
X124896628Y-116132455D01*
X124896628Y-116132455D02*
X124896628Y-116275312D01*
X124896628Y-116275312D02*
X124849009Y-116370550D01*
X124849009Y-116370550D02*
X124801390Y-116418169D01*
X124801390Y-116418169D02*
X124706152Y-116465788D01*
X124706152Y-116465788D02*
X124468057Y-116465788D01*
X124468057Y-116465788D02*
X124372819Y-116418169D01*
X124372819Y-116418169D02*
X124325200Y-116370550D01*
X124325200Y-116370550D02*
X124277580Y-116275312D01*
X124277580Y-116275312D02*
X124277580Y-115989598D01*
X124277580Y-115989598D02*
X124325200Y-115894360D01*
X124325200Y-115894360D02*
X124372819Y-115846741D01*
X124944247Y-116799122D02*
X124277580Y-117037217D01*
X124277580Y-117037217D02*
X124944247Y-117275312D01*
X125277580Y-117561027D02*
X125277580Y-118180074D01*
X125277580Y-118180074D02*
X124896628Y-117846741D01*
X124896628Y-117846741D02*
X124896628Y-117989598D01*
X124896628Y-117989598D02*
X124849009Y-118084836D01*
X124849009Y-118084836D02*
X124801390Y-118132455D01*
X124801390Y-118132455D02*
X124706152Y-118180074D01*
X124706152Y-118180074D02*
X124468057Y-118180074D01*
X124468057Y-118180074D02*
X124372819Y-118132455D01*
X124372819Y-118132455D02*
X124325200Y-118084836D01*
X124325200Y-118084836D02*
X124277580Y-117989598D01*
X124277580Y-117989598D02*
X124277580Y-117703884D01*
X124277580Y-117703884D02*
X124325200Y-117608646D01*
X124325200Y-117608646D02*
X124372819Y-117561027D01*
X124658533Y-118608646D02*
X124658533Y-119370551D01*
D11*
X132754761Y-113350057D02*
X132659523Y-113302438D01*
X132659523Y-113302438D02*
X132564285Y-113207200D01*
X132564285Y-113207200D02*
X132421428Y-113064342D01*
X132421428Y-113064342D02*
X132326190Y-113016723D01*
X132326190Y-113016723D02*
X132230952Y-113016723D01*
X132278571Y-113254819D02*
X132183333Y-113207200D01*
X132183333Y-113207200D02*
X132088095Y-113111961D01*
X132088095Y-113111961D02*
X132040476Y-112921485D01*
X132040476Y-112921485D02*
X132040476Y-112588152D01*
X132040476Y-112588152D02*
X132088095Y-112397676D01*
X132088095Y-112397676D02*
X132183333Y-112302438D01*
X132183333Y-112302438D02*
X132278571Y-112254819D01*
X132278571Y-112254819D02*
X132469047Y-112254819D01*
X132469047Y-112254819D02*
X132564285Y-112302438D01*
X132564285Y-112302438D02*
X132659523Y-112397676D01*
X132659523Y-112397676D02*
X132707142Y-112588152D01*
X132707142Y-112588152D02*
X132707142Y-112921485D01*
X132707142Y-112921485D02*
X132659523Y-113111961D01*
X132659523Y-113111961D02*
X132564285Y-113207200D01*
X132564285Y-113207200D02*
X132469047Y-113254819D01*
X132469047Y-113254819D02*
X132278571Y-113254819D01*
X133088095Y-112350057D02*
X133135714Y-112302438D01*
X133135714Y-112302438D02*
X133230952Y-112254819D01*
X133230952Y-112254819D02*
X133469047Y-112254819D01*
X133469047Y-112254819D02*
X133564285Y-112302438D01*
X133564285Y-112302438D02*
X133611904Y-112350057D01*
X133611904Y-112350057D02*
X133659523Y-112445295D01*
X133659523Y-112445295D02*
X133659523Y-112540533D01*
X133659523Y-112540533D02*
X133611904Y-112683390D01*
X133611904Y-112683390D02*
X133040476Y-113254819D01*
X133040476Y-113254819D02*
X133659523Y-113254819D01*
X140772219Y-98742019D02*
X140772219Y-97742019D01*
X140772219Y-97742019D02*
X141010314Y-97742019D01*
X141010314Y-97742019D02*
X141153171Y-97789638D01*
X141153171Y-97789638D02*
X141248409Y-97884876D01*
X141248409Y-97884876D02*
X141296028Y-97980114D01*
X141296028Y-97980114D02*
X141343647Y-98170590D01*
X141343647Y-98170590D02*
X141343647Y-98313447D01*
X141343647Y-98313447D02*
X141296028Y-98503923D01*
X141296028Y-98503923D02*
X141248409Y-98599161D01*
X141248409Y-98599161D02*
X141153171Y-98694400D01*
X141153171Y-98694400D02*
X141010314Y-98742019D01*
X141010314Y-98742019D02*
X140772219Y-98742019D01*
X141772219Y-98742019D02*
X141772219Y-97742019D01*
X142200790Y-98694400D02*
X142343647Y-98742019D01*
X142343647Y-98742019D02*
X142581742Y-98742019D01*
X142581742Y-98742019D02*
X142676980Y-98694400D01*
X142676980Y-98694400D02*
X142724599Y-98646780D01*
X142724599Y-98646780D02*
X142772218Y-98551542D01*
X142772218Y-98551542D02*
X142772218Y-98456304D01*
X142772218Y-98456304D02*
X142724599Y-98361066D01*
X142724599Y-98361066D02*
X142676980Y-98313447D01*
X142676980Y-98313447D02*
X142581742Y-98265828D01*
X142581742Y-98265828D02*
X142391266Y-98218209D01*
X142391266Y-98218209D02*
X142296028Y-98170590D01*
X142296028Y-98170590D02*
X142248409Y-98122971D01*
X142248409Y-98122971D02*
X142200790Y-98027733D01*
X142200790Y-98027733D02*
X142200790Y-97932495D01*
X142200790Y-97932495D02*
X142248409Y-97837257D01*
X142248409Y-97837257D02*
X142296028Y-97789638D01*
X142296028Y-97789638D02*
X142391266Y-97742019D01*
X142391266Y-97742019D02*
X142629361Y-97742019D01*
X142629361Y-97742019D02*
X142772218Y-97789638D01*
X143200790Y-98742019D02*
X143200790Y-97742019D01*
X143200790Y-97742019D02*
X143581742Y-97742019D01*
X143581742Y-97742019D02*
X143676980Y-97789638D01*
X143676980Y-97789638D02*
X143724599Y-97837257D01*
X143724599Y-97837257D02*
X143772218Y-97932495D01*
X143772218Y-97932495D02*
X143772218Y-98075352D01*
X143772218Y-98075352D02*
X143724599Y-98170590D01*
X143724599Y-98170590D02*
X143676980Y-98218209D01*
X143676980Y-98218209D02*
X143581742Y-98265828D01*
X143581742Y-98265828D02*
X143200790Y-98265828D01*
X144724599Y-98742019D02*
X144153171Y-98742019D01*
X144438885Y-98742019D02*
X144438885Y-97742019D01*
X144438885Y-97742019D02*
X144343647Y-97884876D01*
X144343647Y-97884876D02*
X144248409Y-97980114D01*
X144248409Y-97980114D02*
X144153171Y-98027733D01*
X137374056Y-105879419D02*
X136802628Y-105879419D01*
X137088342Y-105879419D02*
X137088342Y-104879419D01*
X137088342Y-104879419D02*
X136993104Y-105022276D01*
X136993104Y-105022276D02*
X136897866Y-105117514D01*
X136897866Y-105117514D02*
X136802628Y-105165133D01*
X137755009Y-104974657D02*
X137802628Y-104927038D01*
X137802628Y-104927038D02*
X137897866Y-104879419D01*
X137897866Y-104879419D02*
X138135961Y-104879419D01*
X138135961Y-104879419D02*
X138231199Y-104927038D01*
X138231199Y-104927038D02*
X138278818Y-104974657D01*
X138278818Y-104974657D02*
X138326437Y-105069895D01*
X138326437Y-105069895D02*
X138326437Y-105165133D01*
X138326437Y-105165133D02*
X138278818Y-105307990D01*
X138278818Y-105307990D02*
X137707390Y-105879419D01*
X137707390Y-105879419D02*
X138326437Y-105879419D01*
X138897866Y-105307990D02*
X138802628Y-105260371D01*
X138802628Y-105260371D02*
X138755009Y-105212752D01*
X138755009Y-105212752D02*
X138707390Y-105117514D01*
X138707390Y-105117514D02*
X138707390Y-105069895D01*
X138707390Y-105069895D02*
X138755009Y-104974657D01*
X138755009Y-104974657D02*
X138802628Y-104927038D01*
X138802628Y-104927038D02*
X138897866Y-104879419D01*
X138897866Y-104879419D02*
X139088342Y-104879419D01*
X139088342Y-104879419D02*
X139183580Y-104927038D01*
X139183580Y-104927038D02*
X139231199Y-104974657D01*
X139231199Y-104974657D02*
X139278818Y-105069895D01*
X139278818Y-105069895D02*
X139278818Y-105117514D01*
X139278818Y-105117514D02*
X139231199Y-105212752D01*
X139231199Y-105212752D02*
X139183580Y-105260371D01*
X139183580Y-105260371D02*
X139088342Y-105307990D01*
X139088342Y-105307990D02*
X138897866Y-105307990D01*
X138897866Y-105307990D02*
X138802628Y-105355609D01*
X138802628Y-105355609D02*
X138755009Y-105403228D01*
X138755009Y-105403228D02*
X138707390Y-105498466D01*
X138707390Y-105498466D02*
X138707390Y-105688942D01*
X138707390Y-105688942D02*
X138755009Y-105784180D01*
X138755009Y-105784180D02*
X138802628Y-105831800D01*
X138802628Y-105831800D02*
X138897866Y-105879419D01*
X138897866Y-105879419D02*
X139088342Y-105879419D01*
X139088342Y-105879419D02*
X139183580Y-105831800D01*
X139183580Y-105831800D02*
X139231199Y-105784180D01*
X139231199Y-105784180D02*
X139278818Y-105688942D01*
X139278818Y-105688942D02*
X139278818Y-105498466D01*
X139278818Y-105498466D02*
X139231199Y-105403228D01*
X139231199Y-105403228D02*
X139183580Y-105355609D01*
X139183580Y-105355609D02*
X139088342Y-105307990D01*
X139612152Y-105879419D02*
X140135961Y-105212752D01*
X139612152Y-105212752D02*
X140135961Y-105879419D01*
X140421676Y-104879419D02*
X141040723Y-104879419D01*
X141040723Y-104879419D02*
X140707390Y-105260371D01*
X140707390Y-105260371D02*
X140850247Y-105260371D01*
X140850247Y-105260371D02*
X140945485Y-105307990D01*
X140945485Y-105307990D02*
X140993104Y-105355609D01*
X140993104Y-105355609D02*
X141040723Y-105450847D01*
X141040723Y-105450847D02*
X141040723Y-105688942D01*
X141040723Y-105688942D02*
X140993104Y-105784180D01*
X140993104Y-105784180D02*
X140945485Y-105831800D01*
X140945485Y-105831800D02*
X140850247Y-105879419D01*
X140850247Y-105879419D02*
X140564533Y-105879419D01*
X140564533Y-105879419D02*
X140469295Y-105831800D01*
X140469295Y-105831800D02*
X140421676Y-105784180D01*
X141421676Y-104974657D02*
X141469295Y-104927038D01*
X141469295Y-104927038D02*
X141564533Y-104879419D01*
X141564533Y-104879419D02*
X141802628Y-104879419D01*
X141802628Y-104879419D02*
X141897866Y-104927038D01*
X141897866Y-104927038D02*
X141945485Y-104974657D01*
X141945485Y-104974657D02*
X141993104Y-105069895D01*
X141993104Y-105069895D02*
X141993104Y-105165133D01*
X141993104Y-105165133D02*
X141945485Y-105307990D01*
X141945485Y-105307990D02*
X141374057Y-105879419D01*
X141374057Y-105879419D02*
X141993104Y-105879419D01*
X143374057Y-104879419D02*
X143564533Y-104879419D01*
X143564533Y-104879419D02*
X143659771Y-104927038D01*
X143659771Y-104927038D02*
X143755009Y-105022276D01*
X143755009Y-105022276D02*
X143802628Y-105212752D01*
X143802628Y-105212752D02*
X143802628Y-105546085D01*
X143802628Y-105546085D02*
X143755009Y-105736561D01*
X143755009Y-105736561D02*
X143659771Y-105831800D01*
X143659771Y-105831800D02*
X143564533Y-105879419D01*
X143564533Y-105879419D02*
X143374057Y-105879419D01*
X143374057Y-105879419D02*
X143278819Y-105831800D01*
X143278819Y-105831800D02*
X143183581Y-105736561D01*
X143183581Y-105736561D02*
X143135962Y-105546085D01*
X143135962Y-105546085D02*
X143135962Y-105212752D01*
X143135962Y-105212752D02*
X143183581Y-105022276D01*
X143183581Y-105022276D02*
X143278819Y-104927038D01*
X143278819Y-104927038D02*
X143374057Y-104879419D01*
X144707390Y-105879419D02*
X144231200Y-105879419D01*
X144231200Y-105879419D02*
X144231200Y-104879419D01*
X145040724Y-105355609D02*
X145374057Y-105355609D01*
X145516914Y-105879419D02*
X145040724Y-105879419D01*
X145040724Y-105879419D02*
X145040724Y-104879419D01*
X145040724Y-104879419D02*
X145516914Y-104879419D01*
X145945486Y-105879419D02*
X145945486Y-104879419D01*
X145945486Y-104879419D02*
X146183581Y-104879419D01*
X146183581Y-104879419D02*
X146326438Y-104927038D01*
X146326438Y-104927038D02*
X146421676Y-105022276D01*
X146421676Y-105022276D02*
X146469295Y-105117514D01*
X146469295Y-105117514D02*
X146516914Y-105307990D01*
X146516914Y-105307990D02*
X146516914Y-105450847D01*
X146516914Y-105450847D02*
X146469295Y-105641323D01*
X146469295Y-105641323D02*
X146421676Y-105736561D01*
X146421676Y-105736561D02*
X146326438Y-105831800D01*
X146326438Y-105831800D02*
X146183581Y-105879419D01*
X146183581Y-105879419D02*
X145945486Y-105879419D01*
X147707391Y-105879419D02*
X147707391Y-104879419D01*
X147707391Y-104879419D02*
X147945486Y-104879419D01*
X147945486Y-104879419D02*
X148088343Y-104927038D01*
X148088343Y-104927038D02*
X148183581Y-105022276D01*
X148183581Y-105022276D02*
X148231200Y-105117514D01*
X148231200Y-105117514D02*
X148278819Y-105307990D01*
X148278819Y-105307990D02*
X148278819Y-105450847D01*
X148278819Y-105450847D02*
X148231200Y-105641323D01*
X148231200Y-105641323D02*
X148183581Y-105736561D01*
X148183581Y-105736561D02*
X148088343Y-105831800D01*
X148088343Y-105831800D02*
X147945486Y-105879419D01*
X147945486Y-105879419D02*
X147707391Y-105879419D01*
X148707391Y-105879419D02*
X148707391Y-105212752D01*
X148707391Y-104879419D02*
X148659772Y-104927038D01*
X148659772Y-104927038D02*
X148707391Y-104974657D01*
X148707391Y-104974657D02*
X148755010Y-104927038D01*
X148755010Y-104927038D02*
X148707391Y-104879419D01*
X148707391Y-104879419D02*
X148707391Y-104974657D01*
X149135962Y-105831800D02*
X149231200Y-105879419D01*
X149231200Y-105879419D02*
X149421676Y-105879419D01*
X149421676Y-105879419D02*
X149516914Y-105831800D01*
X149516914Y-105831800D02*
X149564533Y-105736561D01*
X149564533Y-105736561D02*
X149564533Y-105688942D01*
X149564533Y-105688942D02*
X149516914Y-105593704D01*
X149516914Y-105593704D02*
X149421676Y-105546085D01*
X149421676Y-105546085D02*
X149278819Y-105546085D01*
X149278819Y-105546085D02*
X149183581Y-105498466D01*
X149183581Y-105498466D02*
X149135962Y-105403228D01*
X149135962Y-105403228D02*
X149135962Y-105355609D01*
X149135962Y-105355609D02*
X149183581Y-105260371D01*
X149183581Y-105260371D02*
X149278819Y-105212752D01*
X149278819Y-105212752D02*
X149421676Y-105212752D01*
X149421676Y-105212752D02*
X149516914Y-105260371D01*
X149993105Y-105212752D02*
X149993105Y-106212752D01*
X149993105Y-105260371D02*
X150088343Y-105212752D01*
X150088343Y-105212752D02*
X150278819Y-105212752D01*
X150278819Y-105212752D02*
X150374057Y-105260371D01*
X150374057Y-105260371D02*
X150421676Y-105307990D01*
X150421676Y-105307990D02*
X150469295Y-105403228D01*
X150469295Y-105403228D02*
X150469295Y-105688942D01*
X150469295Y-105688942D02*
X150421676Y-105784180D01*
X150421676Y-105784180D02*
X150374057Y-105831800D01*
X150374057Y-105831800D02*
X150278819Y-105879419D01*
X150278819Y-105879419D02*
X150088343Y-105879419D01*
X150088343Y-105879419D02*
X149993105Y-105831800D01*
X151040724Y-105879419D02*
X150945486Y-105831800D01*
X150945486Y-105831800D02*
X150897867Y-105736561D01*
X150897867Y-105736561D02*
X150897867Y-104879419D01*
X151850248Y-105879419D02*
X151850248Y-105355609D01*
X151850248Y-105355609D02*
X151802629Y-105260371D01*
X151802629Y-105260371D02*
X151707391Y-105212752D01*
X151707391Y-105212752D02*
X151516915Y-105212752D01*
X151516915Y-105212752D02*
X151421677Y-105260371D01*
X151850248Y-105831800D02*
X151755010Y-105879419D01*
X151755010Y-105879419D02*
X151516915Y-105879419D01*
X151516915Y-105879419D02*
X151421677Y-105831800D01*
X151421677Y-105831800D02*
X151374058Y-105736561D01*
X151374058Y-105736561D02*
X151374058Y-105641323D01*
X151374058Y-105641323D02*
X151421677Y-105546085D01*
X151421677Y-105546085D02*
X151516915Y-105498466D01*
X151516915Y-105498466D02*
X151755010Y-105498466D01*
X151755010Y-105498466D02*
X151850248Y-105450847D01*
X152231201Y-105212752D02*
X152469296Y-105879419D01*
X152707391Y-105212752D02*
X152469296Y-105879419D01*
X152469296Y-105879419D02*
X152374058Y-106117514D01*
X152374058Y-106117514D02*
X152326439Y-106165133D01*
X152326439Y-106165133D02*
X152231201Y-106212752D01*
X133561905Y-99254819D02*
X133561905Y-98254819D01*
X133561905Y-98254819D02*
X133800000Y-98254819D01*
X133800000Y-98254819D02*
X133942857Y-98302438D01*
X133942857Y-98302438D02*
X134038095Y-98397676D01*
X134038095Y-98397676D02*
X134085714Y-98492914D01*
X134085714Y-98492914D02*
X134133333Y-98683390D01*
X134133333Y-98683390D02*
X134133333Y-98826247D01*
X134133333Y-98826247D02*
X134085714Y-99016723D01*
X134085714Y-99016723D02*
X134038095Y-99111961D01*
X134038095Y-99111961D02*
X133942857Y-99207200D01*
X133942857Y-99207200D02*
X133800000Y-99254819D01*
X133800000Y-99254819D02*
X133561905Y-99254819D01*
X135085714Y-99254819D02*
X134514286Y-99254819D01*
X134800000Y-99254819D02*
X134800000Y-98254819D01*
X134800000Y-98254819D02*
X134704762Y-98397676D01*
X134704762Y-98397676D02*
X134609524Y-98492914D01*
X134609524Y-98492914D02*
X134514286Y-98540533D01*
X146733333Y-115604819D02*
X146400000Y-115128628D01*
X146161905Y-115604819D02*
X146161905Y-114604819D01*
X146161905Y-114604819D02*
X146542857Y-114604819D01*
X146542857Y-114604819D02*
X146638095Y-114652438D01*
X146638095Y-114652438D02*
X146685714Y-114700057D01*
X146685714Y-114700057D02*
X146733333Y-114795295D01*
X146733333Y-114795295D02*
X146733333Y-114938152D01*
X146733333Y-114938152D02*
X146685714Y-115033390D01*
X146685714Y-115033390D02*
X146638095Y-115081009D01*
X146638095Y-115081009D02*
X146542857Y-115128628D01*
X146542857Y-115128628D02*
X146161905Y-115128628D01*
X147114286Y-114700057D02*
X147161905Y-114652438D01*
X147161905Y-114652438D02*
X147257143Y-114604819D01*
X147257143Y-114604819D02*
X147495238Y-114604819D01*
X147495238Y-114604819D02*
X147590476Y-114652438D01*
X147590476Y-114652438D02*
X147638095Y-114700057D01*
X147638095Y-114700057D02*
X147685714Y-114795295D01*
X147685714Y-114795295D02*
X147685714Y-114890533D01*
X147685714Y-114890533D02*
X147638095Y-115033390D01*
X147638095Y-115033390D02*
X147066667Y-115604819D01*
X147066667Y-115604819D02*
X147685714Y-115604819D01*
X156643095Y-112544819D02*
X156643095Y-113354342D01*
X156643095Y-113354342D02*
X156690714Y-113449580D01*
X156690714Y-113449580D02*
X156738333Y-113497200D01*
X156738333Y-113497200D02*
X156833571Y-113544819D01*
X156833571Y-113544819D02*
X157024047Y-113544819D01*
X157024047Y-113544819D02*
X157119285Y-113497200D01*
X157119285Y-113497200D02*
X157166904Y-113449580D01*
X157166904Y-113449580D02*
X157214523Y-113354342D01*
X157214523Y-113354342D02*
X157214523Y-112544819D01*
X158166904Y-112544819D02*
X157690714Y-112544819D01*
X157690714Y-112544819D02*
X157643095Y-113021009D01*
X157643095Y-113021009D02*
X157690714Y-112973390D01*
X157690714Y-112973390D02*
X157785952Y-112925771D01*
X157785952Y-112925771D02*
X158024047Y-112925771D01*
X158024047Y-112925771D02*
X158119285Y-112973390D01*
X158119285Y-112973390D02*
X158166904Y-113021009D01*
X158166904Y-113021009D02*
X158214523Y-113116247D01*
X158214523Y-113116247D02*
X158214523Y-113354342D01*
X158214523Y-113354342D02*
X158166904Y-113449580D01*
X158166904Y-113449580D02*
X158119285Y-113497200D01*
X158119285Y-113497200D02*
X158024047Y-113544819D01*
X158024047Y-113544819D02*
X157785952Y-113544819D01*
X157785952Y-113544819D02*
X157690714Y-113497200D01*
X157690714Y-113497200D02*
X157643095Y-113449580D01*
X156850595Y-119854819D02*
X156850595Y-120664342D01*
X156850595Y-120664342D02*
X156898214Y-120759580D01*
X156898214Y-120759580D02*
X156945833Y-120807200D01*
X156945833Y-120807200D02*
X157041071Y-120854819D01*
X157041071Y-120854819D02*
X157231547Y-120854819D01*
X157231547Y-120854819D02*
X157326785Y-120807200D01*
X157326785Y-120807200D02*
X157374404Y-120759580D01*
X157374404Y-120759580D02*
X157422023Y-120664342D01*
X157422023Y-120664342D02*
X157422023Y-119854819D01*
X158326785Y-120188152D02*
X158326785Y-120854819D01*
X158088690Y-119807200D02*
X157850595Y-120521485D01*
X157850595Y-120521485D02*
X158469642Y-120521485D01*
X132183333Y-118154819D02*
X131850000Y-117678628D01*
X131611905Y-118154819D02*
X131611905Y-117154819D01*
X131611905Y-117154819D02*
X131992857Y-117154819D01*
X131992857Y-117154819D02*
X132088095Y-117202438D01*
X132088095Y-117202438D02*
X132135714Y-117250057D01*
X132135714Y-117250057D02*
X132183333Y-117345295D01*
X132183333Y-117345295D02*
X132183333Y-117488152D01*
X132183333Y-117488152D02*
X132135714Y-117583390D01*
X132135714Y-117583390D02*
X132088095Y-117631009D01*
X132088095Y-117631009D02*
X131992857Y-117678628D01*
X131992857Y-117678628D02*
X131611905Y-117678628D01*
X133135714Y-118154819D02*
X132564286Y-118154819D01*
X132850000Y-118154819D02*
X132850000Y-117154819D01*
X132850000Y-117154819D02*
X132754762Y-117297676D01*
X132754762Y-117297676D02*
X132659524Y-117392914D01*
X132659524Y-117392914D02*
X132564286Y-117440533D01*
X137833333Y-114304819D02*
X137500000Y-113828628D01*
X137261905Y-114304819D02*
X137261905Y-113304819D01*
X137261905Y-113304819D02*
X137642857Y-113304819D01*
X137642857Y-113304819D02*
X137738095Y-113352438D01*
X137738095Y-113352438D02*
X137785714Y-113400057D01*
X137785714Y-113400057D02*
X137833333Y-113495295D01*
X137833333Y-113495295D02*
X137833333Y-113638152D01*
X137833333Y-113638152D02*
X137785714Y-113733390D01*
X137785714Y-113733390D02*
X137738095Y-113781009D01*
X137738095Y-113781009D02*
X137642857Y-113828628D01*
X137642857Y-113828628D02*
X137261905Y-113828628D01*
X138166667Y-113304819D02*
X138785714Y-113304819D01*
X138785714Y-113304819D02*
X138452381Y-113685771D01*
X138452381Y-113685771D02*
X138595238Y-113685771D01*
X138595238Y-113685771D02*
X138690476Y-113733390D01*
X138690476Y-113733390D02*
X138738095Y-113781009D01*
X138738095Y-113781009D02*
X138785714Y-113876247D01*
X138785714Y-113876247D02*
X138785714Y-114114342D01*
X138785714Y-114114342D02*
X138738095Y-114209580D01*
X138738095Y-114209580D02*
X138690476Y-114257200D01*
X138690476Y-114257200D02*
X138595238Y-114304819D01*
X138595238Y-114304819D02*
X138309524Y-114304819D01*
X138309524Y-114304819D02*
X138214286Y-114257200D01*
X138214286Y-114257200D02*
X138166667Y-114209580D01*
X144038095Y-82654819D02*
X144038095Y-83464342D01*
X144038095Y-83464342D02*
X144085714Y-83559580D01*
X144085714Y-83559580D02*
X144133333Y-83607200D01*
X144133333Y-83607200D02*
X144228571Y-83654819D01*
X144228571Y-83654819D02*
X144419047Y-83654819D01*
X144419047Y-83654819D02*
X144514285Y-83607200D01*
X144514285Y-83607200D02*
X144561904Y-83559580D01*
X144561904Y-83559580D02*
X144609523Y-83464342D01*
X144609523Y-83464342D02*
X144609523Y-82654819D01*
X145609523Y-83654819D02*
X145038095Y-83654819D01*
X145323809Y-83654819D02*
X145323809Y-82654819D01*
X145323809Y-82654819D02*
X145228571Y-82797676D01*
X145228571Y-82797676D02*
X145133333Y-82892914D01*
X145133333Y-82892914D02*
X145038095Y-82940533D01*
X142038095Y-116404819D02*
X142038095Y-117214342D01*
X142038095Y-117214342D02*
X142085714Y-117309580D01*
X142085714Y-117309580D02*
X142133333Y-117357200D01*
X142133333Y-117357200D02*
X142228571Y-117404819D01*
X142228571Y-117404819D02*
X142419047Y-117404819D01*
X142419047Y-117404819D02*
X142514285Y-117357200D01*
X142514285Y-117357200D02*
X142561904Y-117309580D01*
X142561904Y-117309580D02*
X142609523Y-117214342D01*
X142609523Y-117214342D02*
X142609523Y-116404819D01*
X142990476Y-116404819D02*
X143609523Y-116404819D01*
X143609523Y-116404819D02*
X143276190Y-116785771D01*
X143276190Y-116785771D02*
X143419047Y-116785771D01*
X143419047Y-116785771D02*
X143514285Y-116833390D01*
X143514285Y-116833390D02*
X143561904Y-116881009D01*
X143561904Y-116881009D02*
X143609523Y-116976247D01*
X143609523Y-116976247D02*
X143609523Y-117214342D01*
X143609523Y-117214342D02*
X143561904Y-117309580D01*
X143561904Y-117309580D02*
X143514285Y-117357200D01*
X143514285Y-117357200D02*
X143419047Y-117404819D01*
X143419047Y-117404819D02*
X143133333Y-117404819D01*
X143133333Y-117404819D02*
X143038095Y-117357200D01*
X143038095Y-117357200D02*
X142990476Y-117309580D01*
D10*
X147129961Y-121777693D02*
X147177580Y-121682455D01*
X147177580Y-121682455D02*
X147177580Y-121539598D01*
X147177580Y-121539598D02*
X147129961Y-121396741D01*
X147129961Y-121396741D02*
X147034723Y-121301503D01*
X147034723Y-121301503D02*
X146939485Y-121253884D01*
X146939485Y-121253884D02*
X146749009Y-121206265D01*
X146749009Y-121206265D02*
X146606152Y-121206265D01*
X146606152Y-121206265D02*
X146415676Y-121253884D01*
X146415676Y-121253884D02*
X146320438Y-121301503D01*
X146320438Y-121301503D02*
X146225200Y-121396741D01*
X146225200Y-121396741D02*
X146177580Y-121539598D01*
X146177580Y-121539598D02*
X146177580Y-121634836D01*
X146177580Y-121634836D02*
X146225200Y-121777693D01*
X146225200Y-121777693D02*
X146272819Y-121825312D01*
X146272819Y-121825312D02*
X146606152Y-121825312D01*
X146606152Y-121825312D02*
X146606152Y-121634836D01*
X146844247Y-122253884D02*
X146177580Y-122253884D01*
X146749009Y-122253884D02*
X146796628Y-122301503D01*
X146796628Y-122301503D02*
X146844247Y-122396741D01*
X146844247Y-122396741D02*
X146844247Y-122539598D01*
X146844247Y-122539598D02*
X146796628Y-122634836D01*
X146796628Y-122634836D02*
X146701390Y-122682455D01*
X146701390Y-122682455D02*
X146177580Y-122682455D01*
X146177580Y-123587217D02*
X147177580Y-123587217D01*
X146225200Y-123587217D02*
X146177580Y-123491979D01*
X146177580Y-123491979D02*
X146177580Y-123301503D01*
X146177580Y-123301503D02*
X146225200Y-123206265D01*
X146225200Y-123206265D02*
X146272819Y-123158646D01*
X146272819Y-123158646D02*
X146368057Y-123111027D01*
X146368057Y-123111027D02*
X146653771Y-123111027D01*
X146653771Y-123111027D02*
X146749009Y-123158646D01*
X146749009Y-123158646D02*
X146796628Y-123206265D01*
X146796628Y-123206265D02*
X146844247Y-123301503D01*
X146844247Y-123301503D02*
X146844247Y-123491979D01*
X146844247Y-123491979D02*
X146796628Y-123587217D01*
X149677580Y-121361027D02*
X148677580Y-121694360D01*
X148677580Y-121694360D02*
X149677580Y-122027693D01*
X148677580Y-122361027D02*
X149344247Y-122361027D01*
X149677580Y-122361027D02*
X149629961Y-122313408D01*
X149629961Y-122313408D02*
X149582342Y-122361027D01*
X149582342Y-122361027D02*
X149629961Y-122408646D01*
X149629961Y-122408646D02*
X149677580Y-122361027D01*
X149677580Y-122361027D02*
X149582342Y-122361027D01*
X149344247Y-122837217D02*
X148677580Y-122837217D01*
X149249009Y-122837217D02*
X149296628Y-122884836D01*
X149296628Y-122884836D02*
X149344247Y-122980074D01*
X149344247Y-122980074D02*
X149344247Y-123122931D01*
X149344247Y-123122931D02*
X149296628Y-123218169D01*
X149296628Y-123218169D02*
X149201390Y-123265788D01*
X149201390Y-123265788D02*
X148677580Y-123265788D01*
X143725200Y-121456265D02*
X143677580Y-121599122D01*
X143677580Y-121599122D02*
X143677580Y-121837217D01*
X143677580Y-121837217D02*
X143725200Y-121932455D01*
X143725200Y-121932455D02*
X143772819Y-121980074D01*
X143772819Y-121980074D02*
X143868057Y-122027693D01*
X143868057Y-122027693D02*
X143963295Y-122027693D01*
X143963295Y-122027693D02*
X144058533Y-121980074D01*
X144058533Y-121980074D02*
X144106152Y-121932455D01*
X144106152Y-121932455D02*
X144153771Y-121837217D01*
X144153771Y-121837217D02*
X144201390Y-121646741D01*
X144201390Y-121646741D02*
X144249009Y-121551503D01*
X144249009Y-121551503D02*
X144296628Y-121503884D01*
X144296628Y-121503884D02*
X144391866Y-121456265D01*
X144391866Y-121456265D02*
X144487104Y-121456265D01*
X144487104Y-121456265D02*
X144582342Y-121503884D01*
X144582342Y-121503884D02*
X144629961Y-121551503D01*
X144629961Y-121551503D02*
X144677580Y-121646741D01*
X144677580Y-121646741D02*
X144677580Y-121884836D01*
X144677580Y-121884836D02*
X144629961Y-122027693D01*
X143772819Y-123027693D02*
X143725200Y-122980074D01*
X143725200Y-122980074D02*
X143677580Y-122837217D01*
X143677580Y-122837217D02*
X143677580Y-122741979D01*
X143677580Y-122741979D02*
X143725200Y-122599122D01*
X143725200Y-122599122D02*
X143820438Y-122503884D01*
X143820438Y-122503884D02*
X143915676Y-122456265D01*
X143915676Y-122456265D02*
X144106152Y-122408646D01*
X144106152Y-122408646D02*
X144249009Y-122408646D01*
X144249009Y-122408646D02*
X144439485Y-122456265D01*
X144439485Y-122456265D02*
X144534723Y-122503884D01*
X144534723Y-122503884D02*
X144629961Y-122599122D01*
X144629961Y-122599122D02*
X144677580Y-122741979D01*
X144677580Y-122741979D02*
X144677580Y-122837217D01*
X144677580Y-122837217D02*
X144629961Y-122980074D01*
X144629961Y-122980074D02*
X144582342Y-123027693D01*
X143677580Y-123932455D02*
X143677580Y-123456265D01*
X143677580Y-123456265D02*
X144677580Y-123456265D01*
X139629961Y-122027693D02*
X139677580Y-121932455D01*
X139677580Y-121932455D02*
X139677580Y-121789598D01*
X139677580Y-121789598D02*
X139629961Y-121646741D01*
X139629961Y-121646741D02*
X139534723Y-121551503D01*
X139534723Y-121551503D02*
X139439485Y-121503884D01*
X139439485Y-121503884D02*
X139249009Y-121456265D01*
X139249009Y-121456265D02*
X139106152Y-121456265D01*
X139106152Y-121456265D02*
X138915676Y-121503884D01*
X138915676Y-121503884D02*
X138820438Y-121551503D01*
X138820438Y-121551503D02*
X138725200Y-121646741D01*
X138725200Y-121646741D02*
X138677580Y-121789598D01*
X138677580Y-121789598D02*
X138677580Y-121884836D01*
X138677580Y-121884836D02*
X138725200Y-122027693D01*
X138725200Y-122027693D02*
X138772819Y-122075312D01*
X138772819Y-122075312D02*
X139106152Y-122075312D01*
X139106152Y-122075312D02*
X139106152Y-121884836D01*
X138677580Y-122503884D02*
X139677580Y-122503884D01*
X139677580Y-122503884D02*
X139677580Y-122884836D01*
X139677580Y-122884836D02*
X139629961Y-122980074D01*
X139629961Y-122980074D02*
X139582342Y-123027693D01*
X139582342Y-123027693D02*
X139487104Y-123075312D01*
X139487104Y-123075312D02*
X139344247Y-123075312D01*
X139344247Y-123075312D02*
X139249009Y-123027693D01*
X139249009Y-123027693D02*
X139201390Y-122980074D01*
X139201390Y-122980074D02*
X139153771Y-122884836D01*
X139153771Y-122884836D02*
X139153771Y-122503884D01*
X138677580Y-123503884D02*
X139677580Y-123503884D01*
X139677580Y-124170550D02*
X139677580Y-124265788D01*
X139677580Y-124265788D02*
X139629961Y-124361026D01*
X139629961Y-124361026D02*
X139582342Y-124408645D01*
X139582342Y-124408645D02*
X139487104Y-124456264D01*
X139487104Y-124456264D02*
X139296628Y-124503883D01*
X139296628Y-124503883D02*
X139058533Y-124503883D01*
X139058533Y-124503883D02*
X138868057Y-124456264D01*
X138868057Y-124456264D02*
X138772819Y-124408645D01*
X138772819Y-124408645D02*
X138725200Y-124361026D01*
X138725200Y-124361026D02*
X138677580Y-124265788D01*
X138677580Y-124265788D02*
X138677580Y-124170550D01*
X138677580Y-124170550D02*
X138725200Y-124075312D01*
X138725200Y-124075312D02*
X138772819Y-124027693D01*
X138772819Y-124027693D02*
X138868057Y-123980074D01*
X138868057Y-123980074D02*
X139058533Y-123932455D01*
X139058533Y-123932455D02*
X139296628Y-123932455D01*
X139296628Y-123932455D02*
X139487104Y-123980074D01*
X139487104Y-123980074D02*
X139582342Y-124027693D01*
X139582342Y-124027693D02*
X139629961Y-124075312D01*
X139629961Y-124075312D02*
X139677580Y-124170550D01*
X138677580Y-125456264D02*
X138677580Y-124884836D01*
X138677580Y-125170550D02*
X139677580Y-125170550D01*
X139677580Y-125170550D02*
X139534723Y-125075312D01*
X139534723Y-125075312D02*
X139439485Y-124980074D01*
X139439485Y-124980074D02*
X139391866Y-124884836D01*
X141225200Y-121456265D02*
X141177580Y-121599122D01*
X141177580Y-121599122D02*
X141177580Y-121837217D01*
X141177580Y-121837217D02*
X141225200Y-121932455D01*
X141225200Y-121932455D02*
X141272819Y-121980074D01*
X141272819Y-121980074D02*
X141368057Y-122027693D01*
X141368057Y-122027693D02*
X141463295Y-122027693D01*
X141463295Y-122027693D02*
X141558533Y-121980074D01*
X141558533Y-121980074D02*
X141606152Y-121932455D01*
X141606152Y-121932455D02*
X141653771Y-121837217D01*
X141653771Y-121837217D02*
X141701390Y-121646741D01*
X141701390Y-121646741D02*
X141749009Y-121551503D01*
X141749009Y-121551503D02*
X141796628Y-121503884D01*
X141796628Y-121503884D02*
X141891866Y-121456265D01*
X141891866Y-121456265D02*
X141987104Y-121456265D01*
X141987104Y-121456265D02*
X142082342Y-121503884D01*
X142082342Y-121503884D02*
X142129961Y-121551503D01*
X142129961Y-121551503D02*
X142177580Y-121646741D01*
X142177580Y-121646741D02*
X142177580Y-121884836D01*
X142177580Y-121884836D02*
X142129961Y-122027693D01*
X141177580Y-122456265D02*
X142177580Y-122456265D01*
X142177580Y-122456265D02*
X142177580Y-122694360D01*
X142177580Y-122694360D02*
X142129961Y-122837217D01*
X142129961Y-122837217D02*
X142034723Y-122932455D01*
X142034723Y-122932455D02*
X141939485Y-122980074D01*
X141939485Y-122980074D02*
X141749009Y-123027693D01*
X141749009Y-123027693D02*
X141606152Y-123027693D01*
X141606152Y-123027693D02*
X141415676Y-122980074D01*
X141415676Y-122980074D02*
X141320438Y-122932455D01*
X141320438Y-122932455D02*
X141225200Y-122837217D01*
X141225200Y-122837217D02*
X141177580Y-122694360D01*
X141177580Y-122694360D02*
X141177580Y-122456265D01*
X141463295Y-123408646D02*
X141463295Y-123884836D01*
X141177580Y-123313408D02*
X142177580Y-123646741D01*
X142177580Y-123646741D02*
X141177580Y-123980074D01*
X137177580Y-121408646D02*
X136177580Y-122075312D01*
X137177580Y-122075312D02*
X136177580Y-121408646D01*
X136225200Y-122408646D02*
X136177580Y-122551503D01*
X136177580Y-122551503D02*
X136177580Y-122789598D01*
X136177580Y-122789598D02*
X136225200Y-122884836D01*
X136225200Y-122884836D02*
X136272819Y-122932455D01*
X136272819Y-122932455D02*
X136368057Y-122980074D01*
X136368057Y-122980074D02*
X136463295Y-122980074D01*
X136463295Y-122980074D02*
X136558533Y-122932455D01*
X136558533Y-122932455D02*
X136606152Y-122884836D01*
X136606152Y-122884836D02*
X136653771Y-122789598D01*
X136653771Y-122789598D02*
X136701390Y-122599122D01*
X136701390Y-122599122D02*
X136749009Y-122503884D01*
X136749009Y-122503884D02*
X136796628Y-122456265D01*
X136796628Y-122456265D02*
X136891866Y-122408646D01*
X136891866Y-122408646D02*
X136987104Y-122408646D01*
X136987104Y-122408646D02*
X137082342Y-122456265D01*
X137082342Y-122456265D02*
X137129961Y-122503884D01*
X137129961Y-122503884D02*
X137177580Y-122599122D01*
X137177580Y-122599122D02*
X137177580Y-122837217D01*
X137177580Y-122837217D02*
X137129961Y-122980074D01*
X136177580Y-123408646D02*
X137177580Y-123408646D01*
X136701390Y-123408646D02*
X136701390Y-123980074D01*
X136177580Y-123980074D02*
X137177580Y-123980074D01*
X137177580Y-124456265D02*
X136368057Y-124456265D01*
X136368057Y-124456265D02*
X136272819Y-124503884D01*
X136272819Y-124503884D02*
X136225200Y-124551503D01*
X136225200Y-124551503D02*
X136177580Y-124646741D01*
X136177580Y-124646741D02*
X136177580Y-124837217D01*
X136177580Y-124837217D02*
X136225200Y-124932455D01*
X136225200Y-124932455D02*
X136272819Y-124980074D01*
X136272819Y-124980074D02*
X136368057Y-125027693D01*
X136368057Y-125027693D02*
X137177580Y-125027693D01*
X137177580Y-125361027D02*
X137177580Y-125932455D01*
X136177580Y-125646741D02*
X137177580Y-125646741D01*
D12*
%TO.C,Q2*%
X132812500Y-113890000D02*
X132012500Y-113890000D01*
X132812500Y-113890000D02*
X133612500Y-113890000D01*
X132812500Y-117010000D02*
X132012500Y-117010000D01*
X132812500Y-117010000D02*
X133612500Y-117010000D01*
X131512500Y-113940000D02*
X131272500Y-113610000D01*
X131752500Y-113610000D01*
X131512500Y-113940000D01*
G36*
X131512500Y-113940000D02*
G01*
X131272500Y-113610000D01*
X131752500Y-113610000D01*
X131512500Y-113940000D01*
G37*
%TO.C,DISP1*%
X123700000Y-111800000D02*
X161900000Y-111800000D01*
X161900000Y-99600000D01*
X123700000Y-99600000D01*
X123700000Y-111800000D01*
%TO.C,D1*%
X137114564Y-98935000D02*
X136660436Y-98935000D01*
X137114564Y-97465000D02*
X136660436Y-97465000D01*
%TO.C,R2*%
X143260436Y-114415000D02*
X143714564Y-114415000D01*
X143260436Y-115885000D02*
X143714564Y-115885000D01*
%TO.C,U5*%
X155605000Y-118500000D02*
X159205000Y-118500000D01*
X155566522Y-118488478D02*
G75*
G02*
X157405000Y-114049999I1838478J1838478D01*
G01*
X157405000Y-114050000D02*
G75*
G02*
X159243478Y-118488478I0J-2600000D01*
G01*
%TO.C,U4*%
X157612500Y-121240000D02*
X156962500Y-121240000D01*
X157612500Y-121240000D02*
X158262500Y-121240000D01*
X157612500Y-124360000D02*
X156962500Y-124360000D01*
X157612500Y-124360000D02*
X158262500Y-124360000D01*
X156450000Y-121290000D02*
X156210000Y-120960000D01*
X156690000Y-120960000D01*
X156450000Y-121290000D01*
G36*
X156450000Y-121290000D02*
G01*
X156210000Y-120960000D01*
X156690000Y-120960000D01*
X156450000Y-121290000D01*
G37*
%TO.C,R1*%
X132160436Y-118465000D02*
X132614564Y-118465000D01*
X132160436Y-119935000D02*
X132614564Y-119935000D01*
%TO.C,R3*%
X137435436Y-115865000D02*
X137889564Y-115865000D01*
X137435436Y-117335000D02*
X137889564Y-117335000D01*
%TO.C,U1*%
X125300000Y-72960000D02*
X125300000Y-94570000D01*
X152860000Y-94160000D02*
X159760000Y-94160000D01*
X152860000Y-96700000D02*
X127430000Y-96700000D01*
X152860000Y-96700000D02*
X152860000Y-94160000D01*
X159760000Y-70840000D02*
X127430000Y-70840000D01*
X159760000Y-94160000D02*
X159760000Y-70840000D01*
X125300000Y-72970000D02*
G75*
G02*
X127430000Y-70840000I2130000J0D01*
G01*
X127430000Y-96700000D02*
G75*
G02*
X125300000Y-94570000I2J2130002D01*
G01*
D11*
X134275000Y-97740000D02*
X133005000Y-97740000D01*
X133640000Y-97105000D01*
X134275000Y-97740000D01*
G36*
X134275000Y-97740000D02*
G01*
X133005000Y-97740000D01*
X133640000Y-97105000D01*
X134275000Y-97740000D01*
G37*
D10*
%TO.C,U3*%
X133300000Y-121200000D02*
X135550000Y-121200000D01*
X133300000Y-126200000D02*
X135550000Y-126200000D01*
X135550000Y-118200000D02*
X135550000Y-121200000D01*
D12*
X135550000Y-118200000D02*
X150050000Y-118200000D01*
X135550000Y-126200000D02*
X135550000Y-129200000D01*
D10*
X150050000Y-118200000D02*
X150050000Y-121200000D01*
D12*
X150050000Y-126200000D02*
X150050000Y-129200000D01*
X150050000Y-129200000D02*
X135550000Y-129200000D01*
D10*
X152300000Y-126200000D02*
X150050000Y-126200000D01*
X152350000Y-121200000D02*
X150050000Y-121200000D01*
X133300000Y-126200000D02*
G75*
G02*
X133300000Y-121200000I0J2500000D01*
G01*
X152300000Y-121200000D02*
G75*
G02*
X152300000Y-126200000I0J-2500000D01*
G01*
X134550000Y-123700000D02*
G75*
G02*
X132050000Y-123700000I-1250000J0D01*
G01*
X132050000Y-123700000D02*
G75*
G02*
X134550000Y-123700000I1250000J0D01*
G01*
X153550000Y-123700000D02*
G75*
G02*
X151050000Y-123700000I-1250000J0D01*
G01*
X151050000Y-123700000D02*
G75*
G02*
X153550000Y-123700000I1250000J0D01*
G01*
%TD*%
M02*
